<svg version="1.1" id="Layer_1" xmlns="http://www.w3.org/2000/svg" xmlns:xlink="http://www.w3.org/1999/xlink" x="0px" y="0px"
	 width="100%" viewBox="0 0 1920 472" enable-background="new 0 0 1920 472" xml:space="preserve">
<path fill="#FFFFFF" opacity="1.000000" stroke="none" 
	d="
M1812.000000,473.000000 
	C1208.000000,473.000000 604.500000,473.000000 1.000000,473.000000 
	C1.000000,315.666656 1.000000,158.333328 1.000000,1.000000 
	C641.000000,1.000000 1281.000000,1.000000 1921.000000,1.000000 
	C1921.000000,158.333328 1921.000000,315.666656 1921.000000,473.000000 
	C1884.833374,473.000000 1848.666626,473.000000 1812.000000,473.000000 
M248.106720,235.901520 
	C248.106720,235.901520 248.263779,235.887711 248.352966,236.545837 
	C249.269897,237.940002 250.186813,239.334183 251.315079,241.234787 
	C251.587692,241.473145 251.860321,241.711502 252.238968,242.632751 
	C253.860458,244.997864 255.481934,247.362991 257.327148,250.242111 
	C257.615906,250.471069 257.904694,250.700027 258.342896,251.575134 
	C259.264313,252.980743 260.185699,254.386368 261.071106,255.909042 
	C261.071106,255.909042 261.193542,255.912460 261.246552,256.608612 
	C263.795166,260.147400 266.343750,263.686188 269.039703,267.646942 
	C269.039703,267.646942 269.364105,267.954346 269.361542,268.548645 
	C269.876648,269.097687 270.391754,269.646729 271.038818,270.632935 
	C271.038818,270.632935 271.363647,270.953888 271.376190,271.613434 
	C272.180145,272.891724 272.984131,274.170044 274.015289,275.916168 
	C274.393311,276.270111 274.771301,276.624054 275.238861,277.636139 
	C276.118317,278.843079 276.997742,280.049988 277.971069,281.663513 
	C277.971069,281.663513 278.259033,281.965485 278.252045,282.649261 
	C279.936615,284.403259 279.764832,289.225586 284.063202,286.272217 
	C284.063202,286.272217 284.283112,286.260254 284.909393,285.836700 
	C285.090576,284.709503 285.429535,283.582245 285.428894,282.455139 
	C285.421295,268.862427 285.281097,255.269379 285.341949,241.677155 
	C285.402802,228.095444 285.651703,214.514557 286.414001,200.831787 
	C286.586761,200.728165 286.759552,200.624527 287.568848,200.638199 
	C288.379059,200.424225 289.189301,200.210266 290.768463,200.196548 
	C291.824463,200.211914 292.880432,200.227295 294.425964,200.528931 
	C295.145386,199.842896 295.864777,199.156860 296.584167,198.470810 
	C295.802704,197.775375 295.071808,196.574921 294.229126,196.490463 
	C292.517700,196.318985 290.745880,196.750793 288.078674,196.836060 
	C283.403748,196.728882 278.728790,196.621704 273.321930,196.299576 
	C271.957886,196.831604 270.593842,197.363632 269.229797,197.895645 
	C269.817810,198.606064 270.405853,199.316483 271.836273,200.279251 
	C274.591461,200.514801 277.346680,200.750336 280.235596,201.918747 
	C280.379211,218.035965 280.555267,234.153107 280.596466,250.270584 
	C280.599335,251.394455 279.601868,252.520874 278.856659,253.313583 
	C278.856659,253.313583 278.493713,253.158142 278.459381,252.476562 
	C276.995911,250.268478 275.532471,248.060394 273.834167,245.320175 
	C273.440125,244.894272 273.046112,244.468384 272.736053,243.382401 
	C271.855988,242.187180 270.975922,240.991943 269.910004,239.356613 
	C269.910004,239.356613 269.540405,239.053909 269.578369,238.409485 
	C268.750977,237.205353 267.923584,236.001236 266.909698,234.356369 
	C266.909698,234.356369 266.539398,234.053207 266.600067,233.471634 
	C266.089661,232.931763 265.579285,232.391891 264.830994,231.381927 
	C264.691193,231.275635 264.551361,231.169342 264.446350,230.487625 
	C263.996338,229.924057 263.546295,229.360489 262.909790,228.356445 
	C262.909790,228.356445 262.539551,228.053604 262.601379,227.480072 
	C262.082794,226.953522 261.564209,226.426971 260.886505,225.420792 
	C260.768890,225.300201 260.651276,225.179626 260.573578,224.412994 
	C259.397583,222.908859 258.221619,221.404724 256.886505,219.420868 
	C256.768890,219.300247 256.651276,219.179642 256.573517,218.413010 
	C255.397568,216.908875 254.221619,215.404755 252.886566,213.420898 
	C252.768967,213.300278 252.651352,213.179642 252.565475,212.394638 
	C251.084579,210.177612 249.603683,207.960602 248.029068,205.336838 
	C248.029068,205.336838 247.741165,205.034607 247.734451,204.436020 
	C247.197220,203.871719 246.659988,203.307419 246.028931,202.336594 
	C246.028931,202.336594 245.740875,202.034760 245.760422,201.430710 
	C245.139053,200.711121 244.517700,199.991516 243.502197,198.567368 
	C242.861450,198.053558 242.242538,197.123505 241.576660,197.088531 
	C232.038757,196.587830 222.496201,196.122131 212.949142,195.932678 
	C212.004089,195.913925 211.022034,197.761307 210.057159,198.742569 
	C211.164581,199.509460 212.211090,200.798447 213.391922,200.936249 
	C215.973816,201.237518 218.623932,200.954239 221.571487,201.676498 
	C221.599991,209.306595 221.602402,216.936874 221.662277,224.566727 
	C221.799469,242.049850 221.919998,259.533356 222.154602,277.015228 
	C222.204224,280.712860 221.240753,282.526489 217.018219,282.169159 
	C214.750641,281.977264 212.359833,283.241302 210.024612,283.848358 
	C210.142975,284.484619 210.261322,285.120880 210.379684,285.757141 
	C219.945847,285.757141 229.512009,285.757141 239.685242,285.757141 
	C237.616425,281.232391 234.235107,282.512390 231.557144,282.511780 
	C228.190277,282.510986 226.822464,281.409943 226.838974,277.869537 
	C226.949188,254.233994 226.898941,230.597672 227.497513,206.872757 
	C227.692764,206.824677 227.888016,206.776581 228.427979,207.219040 
	C228.920990,207.544739 229.414001,207.870453 230.037689,208.631027 
	C230.037689,208.631027 230.361084,208.949753 230.404999,209.610535 
	C231.572327,211.138977 232.739639,212.667419 234.004883,214.622208 
	C234.004883,214.622208 234.278732,214.963318 234.280304,215.647598 
	C235.889221,218.029068 237.498138,220.410522 239.071213,222.908173 
	C239.071213,222.908173 239.192764,222.911179 239.259506,223.579605 
	C240.483383,225.102386 241.707260,226.625168 243.166214,228.614410 
	C243.305176,228.719330 243.444122,228.824249 243.555389,229.542603 
	C244.339172,230.426956 245.122955,231.311325 246.038834,232.632843 
	C246.038834,232.632843 246.363907,232.953598 246.353409,233.555878 
	C246.942474,234.285400 247.531555,235.014938 248.106720,235.901520 
M389.769043,275.966125 
	C390.728333,272.499847 392.434570,269.052460 392.522980,265.564117 
	C393.016113,246.110321 393.207306,226.647003 393.301727,207.185974 
	C393.332764,200.787888 393.410217,200.421371 399.854492,200.507843 
	C400.516479,200.516724 401.275024,200.859482 401.817474,200.634476 
	C402.848724,200.206711 403.756042,199.480240 404.714813,198.877808 
	C403.823090,197.932297 402.942261,196.180588 402.037964,196.168365 
	C394.555084,196.067337 387.063538,196.191925 379.587067,196.526276 
	C378.584381,196.571121 377.651123,198.167053 376.685699,199.044724 
	C377.712463,199.655869 378.673859,200.510330 379.784637,200.808762 
	C380.864075,201.098770 382.119659,200.955505 383.257965,200.764496 
	C387.628418,200.031067 388.582733,202.113419 388.549286,206.113480 
	C388.412903,222.417648 388.709106,238.725723 388.540131,255.029205 
	C388.447144,263.998077 387.911041,273.009979 380.437225,280.347290 
	C375.352325,281.538055 370.303375,283.522430 365.175018,283.755005 
	C354.367798,284.245026 347.885620,278.550934 347.545441,267.841461 
	C346.943390,248.887222 347.087860,229.908737 346.977112,210.940063 
	C346.959747,207.962814 346.194611,204.141571 347.705292,202.260910 
	C349.012482,200.633530 353.096283,201.363754 355.879852,200.731125 
	C356.959900,200.485626 357.839874,199.359680 358.810974,198.634827 
	C357.842499,197.905563 356.933838,196.669327 355.893768,196.546539 
	C353.264954,196.236206 350.576813,196.401932 347.912781,196.420776 
	C339.119446,196.482941 330.322601,196.455872 321.536957,196.753708 
	C320.192627,196.799271 318.900391,198.379745 317.584045,199.250320 
	C318.974396,199.814789 320.356537,200.401291 321.761963,200.925339 
	C322.046906,201.031570 322.420258,200.906906 322.752167,200.880096 
	C329.358246,200.346832 329.268433,200.348129 329.386200,207.076935 
	C329.738647,227.212799 330.090454,247.349335 330.608154,267.481354 
	C330.796234,274.794220 334.725555,280.447906 341.003082,283.435669 
	C354.456207,289.838593 368.277618,290.670319 382.611725,283.633118 
	C384.522095,281.404541 386.432434,279.175934 388.819794,276.683105 
	C388.909302,276.524872 388.998779,276.366669 389.769043,275.966125 
M96.849304,281.595184 
	C93.344063,282.236572 89.838814,282.877991 85.085037,283.747833 
	C91.167076,286.856873 123.657242,286.550720 127.168907,283.516174 
	C125.165977,283.074127 123.700905,282.520050 122.216743,282.463043 
	C115.675400,282.211945 114.842209,281.455780 114.855721,275.083435 
	C114.905060,251.817413 115.059509,228.550964 114.944305,205.285812 
	C114.923592,201.103058 116.181206,199.554916 120.372040,199.997177 
	C122.394531,200.210617 124.506126,199.579758 126.577370,199.331192 
	C126.497597,198.561462 126.417816,197.791733 126.338036,197.022003 
	C116.494698,197.022003 106.650497,196.974319 96.810326,197.150864 
	C96.270042,197.160553 95.763229,199.036209 94.790657,200.410721 
	C94.597290,200.942780 94.403931,201.474823 93.667145,202.466034 
	C93.151054,203.997620 92.634964,205.529205 91.586922,207.598694 
	C87.164536,223.363861 82.742157,239.129013 78.319771,254.894180 
	C77.763474,254.853302 77.207169,254.812439 76.650871,254.771561 
	C76.021744,252.946381 75.315193,251.143753 74.775650,249.292465 
	C70.133553,233.364273 65.432564,217.452133 60.974541,201.472321 
	C60.064987,198.212006 58.725121,196.741821 55.186989,196.839401 
	C47.363918,197.055099 39.530090,196.851517 31.702414,196.953842 
	C30.127192,196.974426 28.559782,197.592819 26.988771,197.935608 
	C27.008583,198.600998 27.028393,199.266388 27.048204,199.931763 
	C29.605253,200.142105 32.202221,200.734009 34.709820,200.471664 
	C38.302071,200.095840 39.436951,201.375183 39.388241,204.861069 
	C39.246296,215.020142 39.319965,225.182526 39.343987,235.343521 
	C39.376644,249.157898 39.396767,262.972595 39.519958,276.786285 
	C39.557091,280.950378 38.455509,283.497467 33.552525,283.066650 
	C31.510305,282.887207 29.377819,283.735046 27.286379,284.115784 
	C27.364733,284.654297 27.443085,285.192841 27.521439,285.731354 
	C36.859859,285.731354 46.198277,285.731354 55.536697,285.731354 
	C55.601624,285.087769 55.666550,284.444183 55.731476,283.800598 
	C54.168571,283.462128 52.596985,282.799652 51.044266,282.841248 
	C44.331970,283.021179 43.445267,282.277039 43.457474,275.754669 
	C43.491123,257.778290 43.531017,239.801910 43.564445,221.825531 
	C43.572681,217.395645 43.565670,212.965729 43.565670,208.535828 
	C44.044064,208.512329 44.522457,208.488831 45.000851,208.465332 
	C45.404991,209.321991 45.929291,210.143051 46.195057,211.040680 
	C49.588894,222.503326 52.925571,233.982895 56.317383,245.446152 
	C59.902172,257.561615 63.453335,269.688385 67.229446,281.744354 
	C67.749779,283.405609 69.479851,284.687958 70.649872,286.145721 
	C71.757561,284.728577 73.362572,283.473938 73.887772,281.866486 
	C76.298370,274.488403 78.389015,267.006226 80.628181,259.571564 
	C84.592796,246.407883 88.556671,233.243835 92.577782,220.097366 
	C93.625587,216.671722 94.883644,213.310379 96.045135,209.919510 
	C96.393547,210.011917 96.741951,210.104324 97.090363,210.196732 
	C97.456520,211.768372 97.822685,213.340027 98.025421,215.625320 
	C98.080070,216.107147 98.134720,216.588989 97.805061,217.768661 
	C97.933060,228.153625 98.061058,238.538589 98.015572,249.804092 
	C98.073555,251.892700 98.131546,253.981308 97.831902,256.595886 
	C97.951027,258.038849 98.070152,259.481812 98.014389,261.855408 
	C98.064407,267.257202 98.114433,272.658966 97.728966,278.527832 
	C97.640182,279.354889 97.551399,280.181915 96.849304,281.595184 
M1085.210205,227.406342 
	C1083.029663,225.578262 1081.104004,223.167542 1078.602539,222.072845 
	C1075.625244,220.769974 1072.156982,220.579071 1068.895386,219.937607 
	C1058.749634,217.942215 1055.106445,212.298706 1057.556763,202.298767 
	C1058.585571,198.100143 1060.159302,193.960175 1060.554321,189.707108 
	C1060.825073,186.791946 1060.419189,182.981323 1058.713867,180.856766 
	C1050.560669,170.698990 1040.566040,162.777710 1027.826172,159.011154 
	C1008.282227,153.232895 990.710449,158.506226 974.184387,168.995316 
	C958.462463,178.974014 943.271057,189.889587 927.034912,198.937012 
	C887.560364,220.933853 844.821045,233.926605 800.541260,241.976974 
	C771.413818,247.272552 742.145691,251.794937 713.020203,257.100677 
	C703.232117,258.883789 693.540894,261.647064 685.265930,267.710510 
	C675.490051,274.873810 672.833191,286.235504 679.378479,294.648743 
	C682.513855,298.678986 686.229004,302.412476 690.231750,305.586456 
	C706.224915,318.267944 724.732239,326.210205 743.802368,332.866455 
	C777.272156,344.548676 811.802368,351.144684 847.089905,354.225891 
	C877.900146,356.916138 908.634155,356.474579 939.287964,352.653320 
	C967.779785,349.101562 995.527954,342.278137 1022.309631,331.863831 
	C1038.945557,325.394714 1055.117920,317.944427 1068.748413,306.024567 
	C1080.123291,296.077332 1087.994751,284.063507 1090.355225,268.862000 
	C1092.533936,254.830200 1089.925293,241.365585 1085.210205,227.406342 
M1170.740967,145.155029 
	C1171.076538,144.580597 1171.449829,144.024643 1171.741577,143.428741 
	C1173.615112,139.603226 1171.988770,133.372498 1168.444702,131.591644 
	C1163.806152,129.260803 1162.843018,133.594101 1161.037720,136.061523 
	C1151.947144,148.486588 1142.181519,160.176575 1128.287109,167.619293 
	C1110.389893,177.206116 1093.054199,179.923813 1076.103760,165.130203 
	C1067.599976,157.708511 1056.774048,154.962738 1045.769531,153.394928 
	C1043.845581,153.120819 1041.812012,153.616852 1039.828979,153.757187 
	C1039.727905,154.199310 1039.626709,154.641434 1039.525635,155.083557 
	C1041.246094,156.277084 1043.035522,157.383270 1044.674438,158.679916 
	C1050.520386,163.305054 1056.468140,167.819077 1062.089111,172.706497 
	C1068.570557,178.341949 1069.559082,185.758286 1067.775146,193.725067 
	C1066.941772,197.447556 1065.918701,201.139023 1064.761719,204.774597 
	C1063.424561,208.976562 1065.131348,211.108765 1069.136108,211.941681 
	C1072.715088,212.686035 1076.322876,213.313568 1079.867798,214.194443 
	C1086.664062,215.883240 1091.688599,219.686325 1093.224731,226.834229 
	C1095.036621,235.265091 1096.575928,243.755661 1098.150635,252.235718 
	C1098.638916,254.864624 1098.857422,257.543610 1099.199463,260.199677 
	C1099.745605,260.279663 1100.291870,260.359650 1100.838013,260.439636 
	C1101.934814,258.727142 1103.456787,257.149261 1104.049683,255.277206 
	C1105.900269,249.434036 1108.201050,243.567291 1108.859131,237.549133 
	C1110.030884,226.833847 1110.147217,216.001862 1110.664185,205.216766 
	C1110.967285,198.891235 1114.083374,194.185410 1119.096802,190.655502 
	C1121.674316,188.840622 1124.410522,187.229416 1127.171753,185.700867 
	C1144.833130,175.923828 1159.268311,162.675613 1170.740967,145.155029 
M1665.145508,197.581360 
	C1662.512817,198.601715 1659.747681,199.371338 1657.268677,200.682236 
	C1638.036865,210.852676 1628.844849,235.097839 1635.660522,255.521439 
	C1643.776855,279.842560 1667.721313,290.232422 1687.963989,286.409485 
	C1692.049927,285.637878 1696.491821,285.669861 1700.609009,286.331116 
	C1720.137695,289.467743 1735.780029,283.085388 1747.300781,267.264465 
	C1757.916260,252.686478 1758.330566,231.492493 1748.148560,216.405106 
	C1737.355469,200.412384 1722.148682,193.179733 1702.682739,195.732925 
	C1698.953857,196.222015 1694.969482,197.420227 1691.488647,196.617828 
	C1682.786621,194.611801 1674.359131,194.744370 1665.145508,197.581360 
M569.500000,285.985016 
	C577.663513,285.995789 585.827148,285.978668 593.990356,286.032745 
	C596.776733,286.051178 598.813782,285.680298 598.872681,282.059113 
	C598.983826,275.237885 599.570190,268.424713 599.697754,261.603302 
	C599.726135,260.082275 598.674255,258.541016 598.119751,257.009064 
	C596.879089,258.272308 595.004456,259.326324 594.506775,260.834747 
	C592.267944,267.619934 588.707520,273.328491 583.173462,277.963257 
	C576.352661,283.675720 568.159546,282.307892 560.329773,283.049103 
	C556.555481,283.406403 555.256897,281.687225 555.289612,278.146515 
	C555.386414,267.679443 555.335022,257.211029 555.414856,246.743698 
	C555.439209,243.549637 557.034363,242.413971 560.284485,243.075928 
	C568.176697,244.683304 570.981750,250.740997 573.434387,257.331482 
	C573.837219,258.413788 575.374817,259.073761 576.387939,259.928925 
	C576.874268,258.827118 577.769531,257.730255 577.783020,256.622711 
	C577.904541,246.636917 577.897583,236.649139 577.845398,226.662369 
	C577.839905,225.607986 577.302185,224.556396 576.616516,222.073715 
	C570.164673,228.988632 568.623047,241.288406 555.637573,238.401901 
	C555.637573,228.671982 555.697937,219.059021 555.619934,209.447159 
	C555.547241,200.494553 555.494385,200.216354 564.358704,200.597366 
	C569.867798,200.834137 576.208862,199.407349 580.462341,204.112366 
	C584.621704,208.713196 587.874023,214.126816 591.638794,219.097076 
	C592.438965,220.153473 593.733093,220.835663 594.799683,221.690247 
	C595.524475,220.531525 596.917114,219.340866 596.863586,218.219330 
	C596.561829,211.906799 596.109314,205.582489 595.207947,199.334366 
	C595.036682,198.147110 592.648132,196.460571 591.232422,196.409958 
	C584.080750,196.154190 576.912292,196.406372 569.749878,196.399643 
	C556.427246,196.387131 543.104065,196.259583 529.782776,196.371643 
	C528.547485,196.382004 527.323792,197.766281 526.094727,198.512634 
	C527.311157,199.323914 528.448853,200.629623 529.761169,200.838684 
	C532.146057,201.218552 534.634827,200.946457 537.332764,200.946457 
	C537.476929,202.947647 537.666626,204.408646 537.674866,205.870667 
	C537.807373,229.509094 537.822510,253.148819 538.113342,276.785187 
	C538.169861,281.377167 536.990540,283.213745 532.145752,282.404999 
	C530.316650,282.099670 528.243469,283.256287 526.281555,283.746460 
	C526.438538,284.501953 526.595520,285.257446 526.752502,286.012939 
	C540.668396,286.012939 554.584351,286.012939 569.500000,285.985016 
M452.014954,286.644165 
	C462.133545,286.483643 472.253632,286.375366 482.368805,286.092773 
	C483.557739,286.059540 484.719879,285.067566 485.894440,284.520020 
	C484.827179,283.739197 483.856842,282.688904 482.663177,282.259613 
	C481.640259,281.891815 480.346924,282.127197 479.198883,282.284058 
	C475.717896,282.759583 474.268280,281.214661 474.428864,277.809296 
	C474.554291,275.149170 474.643280,272.483063 474.618622,269.820831 
	C474.422913,248.668167 474.182495,227.515945 473.987762,206.363297 
	C473.934143,200.538345 475.505341,199.009781 480.761383,201.336136 
	C485.144684,203.276230 489.572815,206.119492 492.666382,209.698975 
	C496.053772,213.618393 497.835968,218.899002 500.540863,223.453873 
	C501.166565,224.507507 502.698700,225.022903 503.813751,225.785995 
	C504.399048,224.714676 505.542023,223.610748 505.481628,222.577133 
	C504.989075,214.150986 504.271637,205.737991 503.611206,197.172806 
	C502.013000,196.953979 500.705780,196.599060 499.405579,196.623108 
	C476.425354,197.048080 453.446594,197.556808 430.465729,197.937408 
	C427.239075,197.990860 426.602966,199.762695 426.467926,202.379562 
	C426.142181,208.691360 425.610840,214.996536 425.469940,221.311234 
	C425.432312,222.996933 426.503082,224.707367 427.064941,226.406448 
	C428.372162,225.040421 430.276825,223.898132 430.886292,222.270798 
	C434.007324,213.937149 438.241119,206.698288 446.755066,202.748169 
	C454.982452,198.931000 456.858276,199.899872 456.889709,208.842834 
	C456.969879,231.644516 456.755096,254.448410 457.018585,277.247253 
	C457.069977,281.695099 455.514160,282.674408 451.613922,282.675293 
	C449.346222,282.675812 447.078735,283.625183 444.811157,284.147583 
	C444.904938,284.851044 444.998749,285.554474 445.092529,286.257935 
	C447.125885,286.390869 449.159271,286.523804 452.014954,286.644165 
M179.688751,195.346222 
	C177.552017,195.558472 175.416885,195.931793 173.278229,195.953217 
	C166.458786,196.021500 159.633148,195.815689 152.821243,196.048218 
	C151.127365,196.106033 149.476273,197.417664 147.805511,198.153000 
	C148.014359,198.699387 148.223221,199.245789 148.432083,199.792175 
	C151.973831,199.954926 155.515594,200.117676 159.119934,200.283310 
	C159.239502,202.057632 159.377060,203.208191 159.385757,204.359711 
	C159.565430,228.124695 159.724594,251.889832 159.902023,275.654816 
	C159.951508,282.284424 159.970581,282.153839 153.481506,282.237610 
	C151.681549,282.260803 149.894821,283.308838 148.102020,283.886688 
	C148.256287,284.526398 148.410553,285.166138 148.564835,285.805878 
	C161.278687,285.805878 173.992920,285.841187 186.705368,285.706879 
	C187.376266,285.699829 188.031998,284.256073 188.694794,283.481201 
	C187.546295,282.848297 186.268250,281.512634 185.270325,281.696564 
	C178.806549,282.888092 177.488480,283.041168 177.432495,274.341827 
	C177.285950,251.562088 177.311020,228.780624 177.023071,206.002945 
	C176.963470,201.288208 178.174042,199.187317 183.214493,199.936325 
	C184.643723,200.148712 186.286179,198.926392 187.830841,198.362030 
	C186.241837,197.288895 184.717438,196.092667 183.029999,195.207108 
	C182.411346,194.882477 181.406464,195.293793 179.688751,195.346222 
M1361.865845,272.616852 
	C1375.466797,286.609558 1391.751709,292.038849 1410.535278,286.039948 
	C1428.839233,280.194183 1439.653320,267.007812 1442.093628,247.925232 
	C1444.489868,229.187408 1437.176147,214.100525 1421.556763,203.809402 
	C1406.213257,193.700089 1389.844849,193.331299 1373.776367,202.437286 
	C1347.479370,217.339905 1344.525879,252.999496 1361.865845,272.616852 
M1863.295532,230.251938 
	C1858.822754,212.233780 1847.483887,200.077713 1829.537842,196.697342 
	C1816.152466,194.176041 1802.102905,195.181412 1787.989258,194.601440 
	C1787.989258,224.969193 1787.989258,254.326874 1787.989258,284.037506 
	C1797.980347,284.037506 1807.624390,284.058350 1817.268555,284.033661 
	C1847.701294,283.955841 1867.451782,261.331085 1863.295532,230.251938 
M1571.500000,198.486130 
	C1579.159912,198.486221 1586.835571,198.786011 1594.474121,198.381882 
	C1599.637451,198.108704 1603.304688,198.795334 1603.422241,204.961258 
	C1603.431763,205.463577 1604.078857,205.953766 1605.181763,207.512665 
	C1605.181763,202.692719 1605.181763,199.092148 1605.181763,195.478470 
	C1604.463989,195.335953 1603.983765,195.157684 1603.503418,195.157181 
	C1583.188965,195.136139 1562.873779,195.207397 1542.560425,195.055771 
	C1538.750977,195.027328 1538.738647,197.065262 1538.743164,199.798355 
	C1538.784302,224.776154 1538.767334,249.754059 1538.767212,274.731934 
	C1538.767212,276.662689 1538.767212,278.593445 1538.767212,280.281189 
	C1535.760010,281.304047 1533.472900,282.082001 1531.185791,282.859955 
	C1531.304077,283.109070 1531.422363,283.358154 1531.540649,283.607239 
	C1537.438965,283.607239 1543.337280,283.607239 1549.235596,283.607239 
	C1549.249023,283.401337 1549.262573,283.195465 1549.276001,282.989563 
	C1547.790527,282.434723 1546.305176,281.879883 1544.697754,281.279510 
	C1544.697754,270.741241 1544.697754,260.426788 1544.697754,250.112320 
	C1544.697754,238.492401 1546.649414,236.760345 1558.303223,238.787689 
	C1562.035400,239.436920 1565.639038,240.848480 1569.283569,241.969955 
	C1571.823853,242.751602 1574.278198,243.923325 1576.867065,244.414459 
	C1583.856689,245.740585 1590.071289,243.785049 1595.572021,239.411346 
	C1593.892822,239.399857 1592.349609,240.171661 1590.782104,240.224182 
	C1585.365723,240.405701 1579.541138,241.623352 1574.604614,240.089188 
	C1564.976685,237.097000 1555.833740,232.558243 1544.730957,234.815033 
	C1544.730957,223.094452 1544.639282,212.143036 1544.895142,201.199707 
	C1544.916992,200.268799 1547.231323,198.656631 1548.523682,198.611923 
	C1555.841797,198.358734 1563.173218,198.487045 1571.500000,198.486130 
M1323.317505,203.661285 
	C1323.317505,200.903015 1323.317505,198.144745 1323.317505,195.460968 
	C1298.038208,195.460968 1273.494995,195.460968 1249.205811,195.460968 
	C1249.205811,199.441650 1249.205811,202.968277 1249.205811,206.494904 
	C1250.418091,206.064087 1251.012329,205.549728 1251.030884,205.015472 
	C1251.244141,198.837082 1255.009033,197.836960 1260.134399,198.532104 
	C1261.769775,198.753922 1263.460693,198.566833 1265.126221,198.566833 
	C1271.032837,198.566833 1276.939575,198.566833 1283.229126,198.566833 
	C1283.229126,201.305222 1283.229126,203.112122 1283.229126,204.919022 
	C1283.229248,226.404221 1283.300781,247.889832 1283.180298,269.374359 
	C1283.149170,274.922424 1286.098511,282.206818 1276.488892,283.648804 
	C1282.469116,283.648804 1288.449463,283.648804 1295.261475,283.648804 
	C1292.549561,281.500549 1288.698853,282.727325 1288.755371,277.945007 
	C1289.053101,252.799194 1288.936890,227.647812 1288.841919,202.498825 
	C1288.830078,199.397217 1289.955933,198.451050 1292.924683,198.521103 
	C1299.416504,198.674286 1305.923218,198.770660 1312.407227,198.498260 
	C1317.041016,198.303604 1320.809937,198.569763 1320.754272,204.590424 
	C1320.749023,205.161926 1321.627808,205.741608 1322.096191,206.317474 
	C1322.497803,205.686340 1322.899536,205.055206 1323.317505,203.661285 
z"/>
<path fill="#FC811A" opacity="1.000000" stroke="none" 
	d="
M1085.363525,227.760818 
	C1089.925293,241.365585 1092.533936,254.830200 1090.355225,268.862000 
	C1087.994751,284.063507 1080.123291,296.077332 1068.748413,306.024567 
	C1055.117920,317.944427 1038.945557,325.394714 1022.309631,331.863831 
	C995.527954,342.278137 967.779785,349.101562 939.287964,352.653320 
	C908.634155,356.474579 877.900146,356.916138 847.089905,354.225891 
	C811.802368,351.144684 777.272156,344.548676 743.802368,332.866455 
	C724.732239,326.210205 706.224915,318.267944 690.231750,305.586456 
	C686.229004,302.412476 682.513855,298.678986 679.378479,294.648743 
	C672.833191,286.235504 675.490051,274.873810 685.265930,267.710510 
	C693.540894,261.647064 703.232117,258.883789 713.020203,257.100677 
	C742.145691,251.794937 771.413818,247.272552 800.541260,241.976974 
	C844.821045,233.926605 887.560364,220.933853 927.034912,198.937012 
	C943.271057,189.889587 958.462463,178.974014 974.184387,168.995316 
	C990.710449,158.506226 1008.282227,153.232895 1027.826172,159.011154 
	C1040.566040,162.777710 1050.560669,170.698990 1058.713867,180.856766 
	C1060.419189,182.981323 1060.825073,186.791946 1060.554321,189.707108 
	C1060.159302,193.960175 1058.585571,198.100143 1057.556763,202.298767 
	C1055.106445,212.298706 1058.749634,217.942215 1068.895386,219.937607 
	C1072.156982,220.579071 1075.625244,220.769974 1078.602539,222.072845 
	C1081.104004,223.167542 1083.029663,225.578262 1085.363525,227.760818 
M946.879395,234.310074 
	C961.538574,225.129318 976.452515,216.325409 990.773376,206.644257 
	C1001.532776,199.370743 1012.683350,194.894241 1025.834473,196.217545 
	C1028.150513,196.450577 1030.541748,195.933807 1034.046631,195.680222 
	C1029.503296,190.397766 1024.942139,187.538071 1019.631958,185.988098 
	C1008.234131,182.661194 998.354126,186.797836 989.031067,192.805161 
	C975.184448,201.727173 961.802490,211.429016 947.590637,219.714767 
	C904.716370,244.711258 858.126587,259.659546 809.606384,268.922852 
	C791.636353,272.353607 773.525024,275.039398 755.507324,278.229614 
	C752.093262,278.834137 748.816711,280.215240 745.476746,281.238037 
	C745.563660,281.835388 745.650635,282.432739 745.737610,283.030090 
	C748.086182,283.358490 750.467773,284.118134 752.777771,283.941681 
	C763.558594,283.118073 774.334656,282.175873 785.085266,281.023041 
	C841.497925,274.973816 895.699158,261.190369 946.879395,234.310074 
z"/>
<path fill="#FC831E" opacity="1.000000" stroke="none" 
	d="
M1170.538818,145.466766 
	C1159.268311,162.675613 1144.833130,175.923828 1127.171753,185.700867 
	C1124.410522,187.229416 1121.674316,188.840622 1119.096802,190.655502 
	C1114.083374,194.185410 1110.967285,198.891235 1110.664185,205.216766 
	C1110.147217,216.001862 1110.030884,226.833847 1108.859131,237.549133 
	C1108.201050,243.567291 1105.900269,249.434036 1104.049683,255.277206 
	C1103.456787,257.149261 1101.934814,258.727142 1100.838013,260.439636 
	C1100.291870,260.359650 1099.745605,260.279663 1099.199463,260.199677 
	C1098.857422,257.543610 1098.638916,254.864624 1098.150635,252.235718 
	C1096.575928,243.755661 1095.036621,235.265091 1093.224731,226.834229 
	C1091.688599,219.686325 1086.664062,215.883240 1079.867798,214.194443 
	C1076.322876,213.313568 1072.715088,212.686035 1069.136108,211.941681 
	C1065.131348,211.108765 1063.424561,208.976562 1064.761719,204.774597 
	C1065.918701,201.139023 1066.941772,197.447556 1067.775146,193.725067 
	C1069.559082,185.758286 1068.570557,178.341949 1062.089111,172.706497 
	C1056.468140,167.819077 1050.520386,163.305054 1044.674438,158.679916 
	C1043.035522,157.383270 1041.246094,156.277084 1039.525635,155.083557 
	C1039.626709,154.641434 1039.727905,154.199310 1039.828979,153.757187 
	C1041.812012,153.616852 1043.845581,153.120819 1045.769531,153.394928 
	C1056.774048,154.962738 1067.599976,157.708511 1076.103760,165.130203 
	C1093.054199,179.923813 1110.389893,177.206116 1128.287109,167.619293 
	C1142.181519,160.176575 1151.947144,148.486588 1161.037720,136.061523 
	C1162.843018,133.594101 1163.806152,129.260803 1168.444702,131.591644 
	C1171.988770,133.372498 1173.615112,139.603226 1171.741577,143.428741 
	C1171.449829,144.024643 1171.076538,144.580597 1170.538818,145.466766 
z"/>
<path fill="#FC892A" opacity="1.000000" stroke="none" 
	d="
M1665.510986,197.412842 
	C1674.359131,194.744370 1682.786621,194.611801 1691.488647,196.617828 
	C1694.969482,197.420227 1698.953857,196.222015 1702.682739,195.732925 
	C1722.148682,193.179733 1737.355469,200.412384 1748.148560,216.405106 
	C1758.330566,231.492493 1757.916260,252.686478 1747.300781,267.264465 
	C1735.780029,283.085388 1720.137695,289.467743 1700.609009,286.331116 
	C1696.491821,285.669861 1692.049927,285.637878 1687.963989,286.409485 
	C1667.721313,290.232422 1643.776855,279.842560 1635.660522,255.521439 
	C1628.844849,235.097839 1638.036865,210.852676 1657.268677,200.682236 
	C1659.747681,199.371338 1662.512817,198.601715 1665.510986,197.412842 
M1672.146973,257.019806 
	C1675.534912,265.842285 1680.841553,273.154388 1689.260010,277.737854 
	C1690.914185,278.638458 1693.614014,279.118622 1695.204712,278.401825 
	C1710.047729,271.713806 1718.007568,259.602692 1719.677979,243.858093 
	C1721.259766,228.947220 1716.112793,216.319687 1703.392212,207.465149 
	C1696.714233,202.816757 1694.298584,202.862274 1687.739624,207.556396 
	C1673.298828,217.891388 1667.246948,236.566788 1672.146973,257.019806 
M1744.936279,219.682571 
	C1736.870239,205.406906 1716.792725,196.336166 1704.460693,201.739548 
	C1719.396118,211.178482 1726.633423,224.799927 1725.668457,242.114624 
	C1724.726562,259.014557 1716.302246,272.068451 1701.213623,282.096375 
	C1718.348999,283.421906 1731.736084,278.626434 1741.236816,265.950714 
	C1751.809570,251.844574 1753.013672,236.350113 1744.936279,219.682571 
M1681.269287,277.375641 
	C1668.879150,267.312714 1663.340210,254.133591 1663.987915,238.373672 
	C1664.640625,222.493408 1672.680420,210.640213 1685.734131,201.414368 
	C1668.127197,199.245392 1652.924805,206.946442 1645.059448,221.584915 
	C1637.017212,236.552414 1638.743408,256.300995 1649.116211,267.998291 
	C1658.166016,278.203369 1675.460693,284.323883 1685.480713,280.602142 
	C1684.163330,279.592957 1683.008911,278.708740 1681.269287,277.375641 
z"/>
<path fill="#FC8522" opacity="1.000000" stroke="none" 
	d="
M569.000122,285.998962 
	C554.584351,286.012939 540.668396,286.012939 526.752502,286.012939 
	C526.595520,285.257446 526.438538,284.501953 526.281555,283.746460 
	C528.243469,283.256287 530.316650,282.099670 532.145752,282.404999 
	C536.990540,283.213745 538.169861,281.377167 538.113342,276.785187 
	C537.822510,253.148819 537.807373,229.509094 537.674866,205.870667 
	C537.666626,204.408646 537.476929,202.947647 537.332764,200.946457 
	C534.634827,200.946457 532.146057,201.218552 529.761169,200.838684 
	C528.448853,200.629623 527.311157,199.323914 526.094727,198.512634 
	C527.323792,197.766281 528.547485,196.382004 529.782776,196.371643 
	C543.104065,196.259583 556.427246,196.387131 569.749878,196.399643 
	C576.912292,196.406372 584.080750,196.154190 591.232422,196.409958 
	C592.648132,196.460571 595.036682,198.147110 595.207947,199.334366 
	C596.109314,205.582489 596.561829,211.906799 596.863586,218.219330 
	C596.917114,219.340866 595.524475,220.531525 594.799683,221.690247 
	C593.733093,220.835663 592.438965,220.153473 591.638794,219.097076 
	C587.874023,214.126816 584.621704,208.713196 580.462341,204.112366 
	C576.208862,199.407349 569.867798,200.834137 564.358704,200.597366 
	C555.494385,200.216354 555.547241,200.494553 555.619934,209.447159 
	C555.697937,219.059021 555.637573,228.671982 555.637573,238.401901 
	C568.623047,241.288406 570.164673,228.988632 576.616516,222.073715 
	C577.302185,224.556396 577.839905,225.607986 577.845398,226.662369 
	C577.897583,236.649139 577.904541,246.636917 577.783020,256.622711 
	C577.769531,257.730255 576.874268,258.827118 576.387939,259.928925 
	C575.374817,259.073761 573.837219,258.413788 573.434387,257.331482 
	C570.981750,250.740997 568.176697,244.683304 560.284485,243.075928 
	C557.034363,242.413971 555.439209,243.549637 555.414856,246.743698 
	C555.335022,257.211029 555.386414,267.679443 555.289612,278.146515 
	C555.256897,281.687225 556.555481,283.406403 560.329773,283.049103 
	C568.159546,282.307892 576.352661,283.675720 583.173462,277.963257 
	C588.707520,273.328491 592.267944,267.619934 594.506775,260.834747 
	C595.004456,259.326324 596.879089,258.272308 598.119751,257.009064 
	C598.674255,258.541016 599.726135,260.082275 599.697754,261.603302 
	C599.570190,268.424713 598.983826,275.237885 598.872681,282.059113 
	C598.813782,285.680298 596.776733,286.051178 593.990356,286.032745 
	C585.827148,285.978668 577.663513,285.995789 569.000122,285.998962 
z"/>
<path fill="#FC8421" opacity="1.000000" stroke="none" 
	d="
M451.603790,286.650452 
	C449.159271,286.523804 447.125885,286.390869 445.092529,286.257935 
	C444.998749,285.554474 444.904938,284.851044 444.811157,284.147583 
	C447.078735,283.625183 449.346222,282.675812 451.613922,282.675293 
	C455.514160,282.674408 457.069977,281.695099 457.018585,277.247253 
	C456.755096,254.448410 456.969879,231.644516 456.889709,208.842834 
	C456.858276,199.899872 454.982452,198.931000 446.755066,202.748169 
	C438.241119,206.698288 434.007324,213.937149 430.886292,222.270798 
	C430.276825,223.898132 428.372162,225.040421 427.064941,226.406448 
	C426.503082,224.707367 425.432312,222.996933 425.469940,221.311234 
	C425.610840,214.996536 426.142181,208.691360 426.467926,202.379562 
	C426.602966,199.762695 427.239075,197.990860 430.465729,197.937408 
	C453.446594,197.556808 476.425354,197.048080 499.405579,196.623108 
	C500.705780,196.599060 502.013000,196.953979 503.611206,197.172806 
	C504.271637,205.737991 504.989075,214.150986 505.481628,222.577133 
	C505.542023,223.610748 504.399048,224.714676 503.813721,225.785980 
	C502.698700,225.022903 501.166565,224.507507 500.540863,223.453873 
	C497.835968,218.899002 496.053772,213.618393 492.666382,209.698975 
	C489.572815,206.119492 485.144684,203.276230 480.761383,201.336136 
	C475.505341,199.009781 473.934143,200.538345 473.987762,206.363297 
	C474.182495,227.515945 474.422913,248.668167 474.618622,269.820831 
	C474.643280,272.483063 474.554291,275.149170 474.428864,277.809296 
	C474.268280,281.214661 475.717896,282.759583 479.198883,282.284058 
	C480.346924,282.127197 481.640259,281.891815 482.663177,282.259613 
	C483.856842,282.688904 484.827179,283.739197 485.894440,284.520020 
	C484.719879,285.067566 483.557739,286.059540 482.368805,286.092773 
	C472.253632,286.375366 462.133545,286.483643 451.603790,286.650452 
z"/>
<path fill="#FC8726" opacity="1.000000" stroke="none" 
	d="
M98.188843,214.911682 
	C97.822685,213.340027 97.456520,211.768372 97.090363,210.196732 
	C96.741951,210.104324 96.393547,210.011917 96.045135,209.919510 
	C94.883644,213.310379 93.625587,216.671722 92.577782,220.097366 
	C88.556671,233.243835 84.592796,246.407883 80.628181,259.571564 
	C78.389015,267.006226 76.298370,274.488403 73.887772,281.866486 
	C73.362572,283.473938 71.757561,284.728577 70.649872,286.145721 
	C69.479851,284.687958 67.749779,283.405609 67.229446,281.744354 
	C63.453335,269.688385 59.902172,257.561615 56.317383,245.446152 
	C52.925571,233.982895 49.588894,222.503326 46.195057,211.040680 
	C45.929291,210.143051 45.404991,209.321991 45.000851,208.465332 
	C44.522457,208.488831 44.044064,208.512329 43.565670,208.535828 
	C43.565670,212.965729 43.572681,217.395645 43.564445,221.825531 
	C43.531017,239.801910 43.491123,257.778290 43.457474,275.754669 
	C43.445267,282.277039 44.331970,283.021179 51.044266,282.841248 
	C52.596985,282.799652 54.168571,283.462128 55.731476,283.800598 
	C55.666550,284.444183 55.601624,285.087769 55.536697,285.731354 
	C46.198277,285.731354 36.859859,285.731354 27.521439,285.731354 
	C27.443085,285.192841 27.364733,284.654297 27.286379,284.115784 
	C29.377819,283.735046 31.510305,282.887207 33.552525,283.066650 
	C38.455509,283.497467 39.557091,280.950378 39.519958,276.786285 
	C39.396767,262.972595 39.376644,249.157898 39.343987,235.343521 
	C39.319965,225.182526 39.246296,215.020142 39.388241,204.861069 
	C39.436951,201.375183 38.302071,200.095840 34.709820,200.471664 
	C32.202221,200.734009 29.605253,200.142105 27.048204,199.931763 
	C27.028393,199.266388 27.008583,198.600998 26.988771,197.935608 
	C28.559782,197.592819 30.127192,196.974426 31.702414,196.953842 
	C39.530090,196.851517 47.363918,197.055099 55.186989,196.839401 
	C58.725121,196.741821 60.064987,198.212006 60.974541,201.472321 
	C65.432564,217.452133 70.133553,233.364273 74.775650,249.292465 
	C75.315193,251.143753 76.021744,252.946381 76.650871,254.771561 
	C77.207169,254.812439 77.763474,254.853302 78.319771,254.894180 
	C82.742157,239.129013 87.164536,223.363861 92.099304,207.555939 
	C92.854996,208.708496 93.098297,209.903839 93.223320,210.518051 
	C94.480415,209.733551 95.720810,208.959473 96.961212,208.185379 
	C97.640938,209.683670 98.467957,211.138748 98.926720,212.701889 
	C99.106255,213.313599 98.459343,214.167877 98.188843,214.911682 
z"/>
<path fill="#FC8420" opacity="1.000000" stroke="none" 
	d="
M180.133270,195.357803 
	C181.406464,195.293793 182.411346,194.882477 183.029999,195.207108 
	C184.717438,196.092667 186.241837,197.288895 187.830841,198.362030 
	C186.286179,198.926392 184.643723,200.148712 183.214493,199.936325 
	C178.174042,199.187317 176.963470,201.288208 177.023071,206.002945 
	C177.311020,228.780624 177.285950,251.562088 177.432495,274.341827 
	C177.488480,283.041168 178.806549,282.888092 185.270325,281.696564 
	C186.268250,281.512634 187.546295,282.848297 188.694794,283.481201 
	C188.031998,284.256073 187.376266,285.699829 186.705368,285.706879 
	C173.992920,285.841187 161.278687,285.805878 148.564835,285.805878 
	C148.410553,285.166138 148.256287,284.526398 148.102020,283.886688 
	C149.894821,283.308838 151.681549,282.260803 153.481506,282.237610 
	C159.970581,282.153839 159.951508,282.284424 159.902023,275.654816 
	C159.724594,251.889832 159.565430,228.124695 159.385757,204.359711 
	C159.377060,203.208191 159.239502,202.057632 159.119934,200.283310 
	C155.515594,200.117676 151.973831,199.954926 148.432083,199.792175 
	C148.223221,199.245789 148.014359,198.699387 147.805511,198.153000 
	C149.476273,197.417664 151.127365,196.106033 152.821243,196.048218 
	C159.633148,195.815689 166.458786,196.021500 173.278229,195.953217 
	C175.416885,195.931793 177.552017,195.558472 180.133270,195.357803 
z"/>
<path fill="#FC8421" opacity="1.000000" stroke="none" 
	d="
M381.961884,283.628448 
	C368.277618,290.670319 354.456207,289.838593 341.003082,283.435669 
	C334.725555,280.447906 330.796234,274.794220 330.608154,267.481354 
	C330.090454,247.349335 329.738647,227.212799 329.386200,207.076935 
	C329.268433,200.348129 329.358246,200.346832 322.752167,200.880096 
	C322.420258,200.906906 322.046906,201.031570 321.761963,200.925339 
	C320.356537,200.401291 318.974396,199.814789 317.584045,199.250320 
	C318.900391,198.379745 320.192627,196.799271 321.536957,196.753708 
	C330.322601,196.455872 339.119446,196.482941 347.912781,196.420776 
	C350.576813,196.401932 353.264954,196.236206 355.893768,196.546539 
	C356.933838,196.669327 357.842499,197.905563 358.810974,198.634827 
	C357.839874,199.359680 356.959900,200.485626 355.879852,200.731125 
	C353.096283,201.363754 349.012482,200.633530 347.705292,202.260910 
	C346.194611,204.141571 346.959747,207.962814 346.977112,210.940063 
	C347.087860,229.908737 346.943390,248.887222 347.545441,267.841461 
	C347.885620,278.550934 354.367798,284.245026 365.175018,283.755005 
	C370.303375,283.522430 375.352325,281.538055 381.013794,280.412933 
	C381.714203,281.528534 381.838043,282.578491 381.961884,283.628448 
z"/>
<path fill="#FC8522" opacity="1.000000" stroke="none" 
	d="
M269.364105,267.954346 
	C269.364105,267.954346 269.039703,267.646942 268.969116,267.068024 
	C266.330231,262.963562 263.761871,259.438019 261.193542,255.912460 
	C261.193542,255.912460 261.071106,255.909042 261.069061,255.491959 
	C260.109161,253.692917 259.151306,252.310944 258.193451,250.928986 
	C257.904694,250.700027 257.615906,250.471069 257.187805,249.633118 
	C255.409943,246.666031 253.771454,244.307938 252.132965,241.949844 
	C251.860321,241.711502 251.587692,241.473145 251.189178,240.629364 
	C250.130112,238.645187 249.196945,237.266449 248.263779,235.887711 
	C248.263779,235.887711 248.106720,235.901520 248.087585,235.512390 
	C247.500275,234.400040 246.932083,233.676819 246.363907,232.953598 
	C246.363907,232.953598 246.038834,232.632843 245.985336,232.090149 
	C245.148911,230.674698 244.365982,229.801941 243.583069,228.929169 
	C243.444122,228.824249 243.305176,228.719330 243.045166,228.022827 
	C241.680344,225.924561 240.436554,224.417862 239.192780,222.911179 
	C239.192764,222.911179 239.071213,222.908173 239.068512,222.483551 
	C237.470123,219.693726 235.874435,217.328522 234.278732,214.963318 
	C234.278732,214.963318 234.004883,214.622208 233.962158,214.051575 
	C232.733322,211.970535 231.547211,210.460144 230.361084,208.949753 
	C230.361084,208.949753 230.037689,208.631027 229.986053,208.117981 
	C229.317368,207.312790 228.700333,207.020645 228.083282,206.728500 
	C227.888016,206.776581 227.692764,206.824677 226.809631,207.016205 
	C225.754913,208.849533 225.089981,210.536026 225.070862,212.229813 
	C224.967728,221.365555 225.043808,230.503189 225.004715,239.639954 
	C224.999252,240.915329 224.699326,242.189453 224.535706,243.464157 
	C223.530151,232.835922 223.604111,222.352371 223.490753,211.870834 
	C223.450134,208.115662 226.488861,203.629471 221.246170,200.909729 
	C218.623932,200.954239 215.973816,201.237518 213.391922,200.936249 
	C212.211090,200.798447 211.164581,199.509460 210.057159,198.742569 
	C211.022034,197.761307 212.004089,195.913925 212.949142,195.932678 
	C222.496201,196.122131 232.038757,196.587830 241.576660,197.088531 
	C242.242538,197.123505 242.861450,198.053558 243.718750,199.235062 
	C244.537170,200.613419 245.139023,201.324097 245.740875,202.034760 
	C245.740875,202.034760 246.028931,202.336594 246.057190,202.865692 
	C246.637360,203.941391 247.189270,204.487991 247.741165,205.034607 
	C247.741165,205.034607 248.029068,205.336838 248.058548,205.911377 
	C249.569931,208.676956 251.051834,210.867981 252.533752,213.059006 
	C252.651352,213.179642 252.768967,213.300278 252.971008,214.009460 
	C254.214844,216.085022 255.374252,217.572037 256.533661,219.059036 
	C256.651276,219.179642 256.768890,219.300247 256.970947,220.009430 
	C258.214813,222.085022 259.374237,223.572037 260.533661,225.059036 
	C260.651276,225.179626 260.768890,225.300201 260.964478,225.958008 
	C261.541504,227.014679 262.040527,227.534134 262.539551,228.053604 
	C262.539551,228.053604 262.909790,228.356445 262.984802,228.874268 
	C263.510376,229.949097 263.960968,230.506073 264.411560,231.063049 
	C264.551361,231.169342 264.691193,231.275635 264.946533,231.917847 
	C265.554504,232.986908 266.046936,233.520050 266.539398,234.053207 
	C266.539398,234.053207 266.909698,234.356369 266.990601,234.921082 
	C267.894501,236.675156 268.717438,237.864532 269.540405,239.053909 
	C269.540405,239.053909 269.910004,239.356613 269.993286,239.924301 
	C270.935059,241.675491 271.793549,242.858994 272.652069,244.042480 
	C273.046112,244.468384 273.440125,244.894272 273.953888,245.949188 
	C275.546967,248.771515 277.020355,250.964828 278.493713,253.158142 
	C278.493713,253.158142 278.856659,253.313583 279.287048,253.612198 
	C280.477814,252.610382 281.886078,251.316635 281.899597,250.008469 
	C282.054993,234.981430 282.045776,219.951782 281.916138,204.924271 
	C281.904755,203.606354 280.734070,202.298447 280.101868,200.985870 
	C277.346680,200.750336 274.591461,200.514801 271.453217,199.830215 
	C272.064728,198.425629 273.059296,197.470078 274.053864,196.514542 
	C278.728790,196.621704 283.403748,196.728882 288.382446,197.155273 
	C288.101593,198.489975 287.516968,199.505447 286.932312,200.520905 
	C286.759552,200.624527 286.586761,200.728165 285.732910,200.994339 
	C284.698730,202.686203 284.058441,204.212112 284.040283,205.745392 
	C283.942200,214.029831 283.972168,222.316208 284.006561,230.601715 
	C284.083557,249.154617 284.189148,267.707397 284.283112,286.260254 
	C284.283112,286.260254 284.063202,286.272217 283.814331,286.178253 
	C281.796661,284.711365 280.027832,283.338409 278.259033,281.965485 
	C278.259033,281.965485 277.971069,281.663513 277.942108,281.100555 
	C276.991852,279.351074 276.070587,278.164551 275.149292,276.978027 
	C274.771301,276.624054 274.393311,276.270111 273.946075,275.317688 
	C273.039124,273.464081 272.201385,272.208984 271.363647,270.953888 
	C271.363647,270.953888 271.038818,270.632935 270.983215,270.102173 
	C270.406433,269.032410 269.885254,268.493378 269.364105,267.954346 
z"/>
<path fill="#FC8420" opacity="1.000000" stroke="none" 
	d="
M98.107132,215.268494 
	C98.459343,214.167877 99.106255,213.313599 98.926720,212.701889 
	C98.467957,211.138748 97.640938,209.683670 96.961212,208.185379 
	C95.720810,208.959473 94.480415,209.733551 93.223320,210.518051 
	C93.098297,209.903839 92.854996,208.708496 92.365280,207.286987 
	C92.634964,205.529205 93.151054,203.997620 94.216515,202.210327 
	C95.302444,201.504562 95.839005,201.054504 96.375565,200.604446 
	C95.997322,200.417404 95.619080,200.230362 95.240837,200.043320 
	C95.763229,199.036209 96.270042,197.160553 96.810326,197.150864 
	C106.650497,196.974319 116.494698,197.022003 126.338036,197.022003 
	C126.417816,197.791733 126.497597,198.561462 126.577370,199.331192 
	C124.506126,199.579758 122.394531,200.210617 120.372040,199.997177 
	C116.181206,199.554916 114.923592,201.103058 114.944305,205.285812 
	C115.059509,228.550964 114.905060,251.817413 114.855721,275.083435 
	C114.842209,281.455780 115.675400,282.211945 122.216743,282.463043 
	C123.700905,282.520050 125.165977,283.074127 127.168907,283.516174 
	C123.657242,286.550720 91.167076,286.856873 85.085037,283.747833 
	C89.838814,282.877991 93.344063,282.236572 97.434097,281.229309 
	C98.067406,279.929230 98.115929,278.994995 98.164452,278.060760 
	C98.114433,272.658966 98.064407,267.257202 98.337074,261.153625 
	C98.503021,258.991180 98.346275,257.530548 98.189537,256.069916 
	C98.131546,253.981308 98.073555,251.892700 98.363670,249.051468 
	C98.808647,242.479446 99.037827,236.658279 98.960220,230.841217 
	C98.898949,226.248459 98.460365,221.660767 98.189362,217.070816 
	C98.134720,216.588989 98.080070,216.107147 98.107132,215.268494 
z"/>
<path fill="#FC8A2B" opacity="1.000000" stroke="none" 
	d="
M1361.634277,272.350281 
	C1344.525879,252.999496 1347.479370,217.339905 1373.776367,202.437286 
	C1389.844849,193.331299 1406.213257,193.700089 1421.556763,203.809402 
	C1437.176147,214.100525 1444.489868,229.187408 1442.093628,247.925232 
	C1439.653320,267.007812 1428.839233,280.194183 1410.535278,286.039948 
	C1391.751709,292.038849 1375.466797,286.609558 1361.634277,272.350281 
M1421.162231,209.287476 
	C1408.653076,199.736420 1395.088745,196.986603 1380.446533,203.640106 
	C1358.703369,213.520218 1349.788330,241.952927 1361.705444,262.698792 
	C1370.534058,278.068054 1389.007690,287.477814 1404.145264,283.416382 
	C1420.704224,278.973572 1431.949463,268.167816 1435.934814,251.429077 
	C1439.854736,234.965302 1434.428589,220.926178 1421.162231,209.287476 
z"/>
<path fill="#FC8A2B" opacity="1.000000" stroke="none" 
	d="
M1863.410156,230.658539 
	C1867.451782,261.331085 1847.701294,283.955841 1817.268555,284.033661 
	C1807.624390,284.058350 1797.980347,284.037506 1787.989258,284.037506 
	C1787.989258,254.326874 1787.989258,224.969193 1787.989258,194.601440 
	C1802.102905,195.181412 1816.152466,194.176041 1829.537842,196.697342 
	C1847.483887,200.077713 1858.822754,212.233780 1863.410156,230.658539 
M1858.090454,231.778961 
	C1851.882812,208.027695 1839.598389,198.465530 1815.292847,198.465454 
	C1809.635620,198.465439 1803.963501,198.718216 1798.326172,198.382889 
	C1794.090088,198.130920 1793.016602,199.663177 1793.046753,203.755936 
	C1793.222778,227.714478 1793.127930,251.674988 1793.145142,275.634827 
	C1793.146362,277.242584 1793.318848,278.850250 1793.386475,280.022308 
	C1805.287598,280.022308 1816.708008,280.138550 1828.122070,279.921448 
	C1830.329468,279.879456 1832.631958,278.775208 1834.687012,277.752106 
	C1851.319580,269.471680 1860.844604,251.075317 1858.090454,231.778961 
z"/>
<path fill="#FC8B2E" opacity="1.000000" stroke="none" 
	d="
M1571.000000,198.485779 
	C1563.173218,198.487045 1555.841797,198.358734 1548.523682,198.611923 
	C1547.231323,198.656631 1544.916992,200.268799 1544.895142,201.199707 
	C1544.639282,212.143036 1544.730957,223.094452 1544.730957,234.815033 
	C1555.833740,232.558243 1564.976685,237.097000 1574.604614,240.089188 
	C1579.541138,241.623352 1585.365723,240.405701 1590.782104,240.224182 
	C1592.349609,240.171661 1593.892822,239.399857 1595.572021,239.411346 
	C1590.071289,243.785049 1583.856689,245.740585 1576.867065,244.414459 
	C1574.278198,243.923325 1571.823853,242.751602 1569.283569,241.969955 
	C1565.639038,240.848480 1562.035400,239.436920 1558.303223,238.787689 
	C1546.649414,236.760345 1544.697754,238.492401 1544.697754,250.112320 
	C1544.697754,260.426788 1544.697754,270.741241 1544.697754,281.279510 
	C1546.305176,281.879883 1547.790527,282.434723 1549.276001,282.989563 
	C1549.262573,283.195465 1549.249023,283.401337 1549.235596,283.607239 
	C1543.337280,283.607239 1537.438965,283.607239 1531.540649,283.607239 
	C1531.422363,283.358154 1531.304077,283.109070 1531.185791,282.859955 
	C1533.472900,282.082001 1535.760010,281.304047 1538.767212,280.281189 
	C1538.767212,278.593445 1538.767212,276.662689 1538.767212,274.731934 
	C1538.767334,249.754059 1538.784302,224.776154 1538.743164,199.798355 
	C1538.738647,197.065262 1538.750977,195.027328 1542.560425,195.055771 
	C1562.873779,195.207397 1583.188965,195.136139 1603.503418,195.157181 
	C1603.983765,195.157684 1604.463989,195.335953 1605.181763,195.478470 
	C1605.181763,199.092148 1605.181763,202.692719 1605.181763,207.512665 
	C1604.078857,205.953766 1603.431763,205.463577 1603.422241,204.961258 
	C1603.304688,198.795334 1599.637451,198.108704 1594.474121,198.381882 
	C1586.835571,198.786011 1579.159912,198.486221 1571.000000,198.485779 
z"/>
<path fill="#FD943D" opacity="1.000000" stroke="none" 
	d="
M1323.309326,204.042679 
	C1322.899536,205.055206 1322.497803,205.686340 1322.096191,206.317474 
	C1321.627808,205.741608 1320.749023,205.161926 1320.754272,204.590424 
	C1320.809937,198.569763 1317.041016,198.303604 1312.407227,198.498260 
	C1305.923218,198.770660 1299.416504,198.674286 1292.924683,198.521103 
	C1289.955933,198.451050 1288.830078,199.397217 1288.841919,202.498825 
	C1288.936890,227.647812 1289.053101,252.799194 1288.755371,277.945007 
	C1288.698853,282.727325 1292.549561,281.500549 1295.261475,283.648804 
	C1288.449463,283.648804 1282.469116,283.648804 1276.488892,283.648804 
	C1286.098511,282.206818 1283.149170,274.922424 1283.180298,269.374359 
	C1283.300781,247.889832 1283.229248,226.404221 1283.229126,204.919022 
	C1283.229126,203.112122 1283.229126,201.305222 1283.229126,198.566833 
	C1276.939575,198.566833 1271.032837,198.566833 1265.126221,198.566833 
	C1263.460693,198.566833 1261.769775,198.753922 1260.134399,198.532104 
	C1255.009033,197.836960 1251.244141,198.837082 1251.030884,205.015472 
	C1251.012329,205.549728 1250.418091,206.064087 1249.205811,206.494904 
	C1249.205811,202.968277 1249.205811,199.441650 1249.205811,195.460968 
	C1273.494995,195.460968 1298.038208,195.460968 1323.317505,195.460968 
	C1323.317505,198.144745 1323.317505,200.903015 1323.309326,204.042679 
z"/>
<path fill="#FD8E33" opacity="1.000000" stroke="none" 
	d="
M382.286804,283.630798 
	C381.838043,282.578491 381.714203,281.528534 381.346924,280.271637 
	C387.911041,273.009979 388.447144,263.998077 388.540131,255.029205 
	C388.709106,238.725723 388.412903,222.417648 388.549286,206.113480 
	C388.582733,202.113419 387.628418,200.031067 383.257965,200.764496 
	C382.119659,200.955505 380.864075,201.098770 379.784637,200.808762 
	C378.673859,200.510330 377.712463,199.655869 376.685699,199.044724 
	C377.651123,198.167053 378.584381,196.571121 379.587067,196.526276 
	C387.063538,196.191925 394.555084,196.067337 402.037964,196.168365 
	C402.942261,196.180588 403.823090,197.932297 404.714813,198.877808 
	C403.756042,199.480240 402.848724,200.206711 401.817474,200.634476 
	C401.275024,200.859482 400.516479,200.516724 399.854492,200.507843 
	C393.410217,200.421371 393.332764,200.787888 393.301727,207.185974 
	C393.207306,226.647003 393.016113,246.110321 392.522980,265.564117 
	C392.434570,269.052460 390.728333,272.499847 389.437439,275.681580 
	C389.681152,272.502686 390.256439,269.608368 390.831726,266.714020 
	C388.745178,269.461182 387.570953,272.251801 386.663513,275.126617 
	C386.539978,275.517853 387.750153,276.330078 388.342804,276.947357 
	C386.432434,279.175934 384.522095,281.404541 382.286804,283.630798 
z"/>
<path fill="#FD943D" opacity="1.000000" stroke="none" 
	d="
M221.408829,201.293121 
	C226.488861,203.629471 223.450134,208.115662 223.490753,211.870834 
	C223.604111,222.352371 223.530151,232.835922 224.535706,243.464157 
	C224.699326,242.189453 224.999252,240.915329 225.004715,239.639954 
	C225.043808,230.503189 224.967728,221.365555 225.070862,212.229813 
	C225.089981,210.536026 225.754913,208.849533 226.511292,207.060638 
	C226.898941,230.597672 226.949188,254.233994 226.838974,277.869537 
	C226.822464,281.409943 228.190277,282.510986 231.557144,282.511780 
	C234.235107,282.512390 237.616425,281.232391 239.685242,285.757141 
	C229.512009,285.757141 219.945847,285.757141 210.379684,285.757141 
	C210.261322,285.120880 210.142975,284.484619 210.024612,283.848358 
	C212.359833,283.241302 214.750641,281.977264 217.018219,282.169159 
	C221.240753,282.526489 222.204224,280.712860 222.154602,277.015228 
	C221.919998,259.533356 221.799469,242.049850 221.662277,224.566727 
	C221.602402,216.936874 221.599991,209.306595 221.408829,201.293121 
z"/>
<path fill="#FD943D" opacity="1.000000" stroke="none" 
	d="
M284.596252,286.048462 
	C284.189148,267.707397 284.083557,249.154617 284.006561,230.601715 
	C283.972168,222.316208 283.942200,214.029831 284.040283,205.745392 
	C284.058441,204.212112 284.698730,202.686203 285.434998,201.045105 
	C285.651703,214.514557 285.402802,228.095444 285.341949,241.677155 
	C285.281097,255.269379 285.421295,268.862427 285.428894,282.455139 
	C285.429535,283.582245 285.090576,284.709503 284.596252,286.048462 
z"/>
<path fill="#FD943D" opacity="1.000000" stroke="none" 
	d="
M280.168732,201.452316 
	C280.734070,202.298447 281.904755,203.606354 281.916138,204.924271 
	C282.045776,219.951782 282.054993,234.981430 281.899597,250.008469 
	C281.886078,251.316635 280.477814,252.610382 279.393494,253.778458 
	C279.601868,252.520874 280.599335,251.394455 280.596466,250.270584 
	C280.555267,234.153107 280.379211,218.035965 280.168732,201.452316 
z"/>
<path fill="#FC8726" opacity="1.000000" stroke="none" 
	d="
M97.997208,217.419739 
	C98.460365,221.660767 98.898949,226.248459 98.960220,230.841217 
	C99.037827,236.658279 98.808647,242.479446 98.450409,248.611206 
	C98.061058,238.538589 97.933060,228.153625 97.997208,217.419739 
z"/>
<path fill="#FD943D" opacity="1.000000" stroke="none" 
	d="
M287.250580,200.579559 
	C287.516968,199.505447 288.101593,198.489975 288.842590,197.204224 
	C290.745880,196.750793 292.517700,196.318985 294.229126,196.490463 
	C295.071808,196.574921 295.802704,197.775375 296.584167,198.470810 
	C295.864777,199.156860 295.145386,199.842896 294.172791,200.055420 
	C292.612885,199.720032 291.306213,199.858170 289.999512,199.996307 
	C289.189301,200.210266 288.379059,200.424225 287.250580,200.579559 
z"/>
<path fill="#FD943D" opacity="1.000000" stroke="none" 
	d="
M261.220032,256.260529 
	C263.761871,259.438019 266.330231,262.963562 268.895447,266.857056 
	C266.343750,263.686188 263.795166,260.147400 261.220032,256.260529 
z"/>
<path fill="#FC8421" opacity="1.000000" stroke="none" 
	d="
M388.581299,276.815247 
	C387.750153,276.330078 386.539978,275.517853 386.663513,275.126617 
	C387.570953,272.251801 388.745178,269.461182 390.831726,266.714020 
	C390.256439,269.608368 389.681152,272.502686 389.097076,275.802734 
	C388.998779,276.366669 388.909302,276.524872 388.581299,276.815247 
z"/>
<path fill="#FD943D" opacity="1.000000" stroke="none" 
	d="
M234.279510,215.305450 
	C235.874435,217.328522 237.470123,219.693726 239.086441,222.425461 
	C237.498138,220.410522 235.889221,218.029068 234.279510,215.305450 
z"/>
<path fill="#FD943D" opacity="1.000000" stroke="none" 
	d="
M278.476562,252.817352 
	C277.020355,250.964828 275.546967,248.771515 274.071320,246.215240 
	C275.532471,248.060394 276.995911,250.268478 278.476562,252.817352 
z"/>
<path fill="#FD943D" opacity="1.000000" stroke="none" 
	d="
M252.185974,242.291290 
	C253.771454,244.307938 255.409943,246.666031 257.075928,249.376129 
	C255.481934,247.362991 253.860458,244.997864 252.185974,242.291290 
z"/>
<path fill="#FD943D" opacity="1.000000" stroke="none" 
	d="
M278.255554,282.307373 
	C280.027832,283.338409 281.796661,284.711365 283.923767,286.190887 
	C279.764832,289.225586 279.936615,284.403259 278.255554,282.307373 
z"/>
<path fill="#FD943D" opacity="1.000000" stroke="none" 
	d="
M252.549606,212.726822 
	C251.051834,210.867981 249.569931,208.676956 248.105408,206.114761 
	C249.603683,207.960602 251.084579,210.177612 252.549606,212.726822 
z"/>
<path fill="#FD943D" opacity="1.000000" stroke="none" 
	d="
M273.687897,196.407059 
	C273.059296,197.470078 272.064728,198.425629 271.032013,199.704041 
	C270.405853,199.316483 269.817810,198.606064 269.229797,197.895645 
	C270.593842,197.363632 271.957886,196.831604 273.687897,196.407059 
z"/>
<path fill="#FD943D" opacity="1.000000" stroke="none" 
	d="
M230.383041,209.280151 
	C231.547211,210.460144 232.733322,211.970535 233.913208,213.838394 
	C232.739639,212.667419 231.572327,211.138977 230.383041,209.280151 
z"/>
<path fill="#FD943D" opacity="1.000000" stroke="none" 
	d="
M239.226135,223.245392 
	C240.436554,224.417862 241.680344,225.924561 242.927643,227.789612 
	C241.707260,226.625168 240.483383,225.102386 239.226135,223.245392 
z"/>
<path fill="#FD943D" opacity="1.000000" stroke="none" 
	d="
M260.553619,224.736023 
	C259.374237,223.572037 258.214813,222.085022 257.050507,220.249298 
	C258.221619,221.404724 259.397583,222.908859 260.553619,224.736023 
z"/>
<path fill="#FD943D" opacity="1.000000" stroke="none" 
	d="
M256.553589,218.736023 
	C255.374252,217.572037 254.214844,216.085022 253.050552,214.249329 
	C254.221619,215.404755 255.397568,216.908875 256.553589,218.736023 
z"/>
<path fill="#FC8726" opacity="1.000000" stroke="none" 
	d="
M98.010719,256.332886 
	C98.346275,257.530548 98.503021,258.991180 98.424515,260.688293 
	C98.070152,259.481812 97.951027,258.038849 98.010719,256.332886 
z"/>
<path fill="#FD943D" opacity="1.000000" stroke="none" 
	d="
M248.308380,236.216766 
	C249.196945,237.266449 250.130112,238.645187 251.083496,240.376129 
	C250.186813,239.334183 249.269897,237.940002 248.308380,236.216766 
z"/>
<path fill="#FD943D" opacity="1.000000" stroke="none" 
	d="
M258.268188,251.252060 
	C259.151306,252.310944 260.109161,253.692917 261.087067,255.433426 
	C260.185699,254.386368 259.264313,252.980743 258.268188,251.252060 
z"/>
<path fill="#FD943D" opacity="1.000000" stroke="none" 
	d="
M271.369934,271.283661 
	C272.201385,272.208984 273.039124,273.464081 273.832458,275.083740 
	C272.984131,274.170044 272.180145,272.891724 271.369934,271.283661 
z"/>
<path fill="#FD943D" opacity="1.000000" stroke="none" 
	d="
M275.194092,277.307068 
	C276.070587,278.164551 276.991852,279.351074 277.895172,280.897278 
	C276.997742,280.049988 276.118317,278.843079 275.194092,277.307068 
z"/>
<path fill="#FD943D" opacity="1.000000" stroke="none" 
	d="
M272.694061,243.712433 
	C271.793549,242.858994 270.935059,241.675491 270.086212,240.144348 
	C270.975922,240.991943 271.855988,242.187180 272.694061,243.712433 
z"/>
<path fill="#FD943D" opacity="1.000000" stroke="none" 
	d="
M269.559387,238.731689 
	C268.717438,237.864532 267.894501,236.675156 267.083862,235.141449 
	C267.923584,236.001236 268.750977,237.205353 269.559387,238.731689 
z"/>
<path fill="#FD943D" opacity="1.000000" stroke="none" 
	d="
M243.569229,229.235886 
	C244.365982,229.801941 245.148911,230.674698 245.919281,231.871582 
	C245.122955,231.311325 244.339172,230.426956 243.569229,229.235886 
z"/>
<path fill="#FC8726" opacity="1.000000" stroke="none" 
	d="
M97.946709,278.294312 
	C98.115929,278.994995 98.067406,279.929230 97.740753,280.936218 
	C97.551399,280.181915 97.640182,279.354889 97.946709,278.294312 
z"/>
<path fill="#FC8522" opacity="1.000000" stroke="none" 
	d="
M290.383972,200.096436 
	C291.306213,199.858170 292.612885,199.720032 293.928009,199.912292 
	C292.880432,200.227295 291.824463,200.211914 290.383972,200.096436 
z"/>
<path fill="#FD943D" opacity="1.000000" stroke="none" 
	d="
M246.358658,233.254730 
	C246.932083,233.676819 247.500275,234.400040 248.094543,235.433868 
	C247.531555,235.014938 246.942474,234.285400 246.358658,233.254730 
z"/>
<path fill="#FD943D" opacity="1.000000" stroke="none" 
	d="
M245.750641,201.732727 
	C245.139023,201.324097 244.537170,200.613419 243.915833,199.587341 
	C244.517700,199.991516 245.139053,200.711121 245.750641,201.732727 
z"/>
<path fill="#FC8726" opacity="1.000000" stroke="none" 
	d="
M95.015747,200.227020 
	C95.619080,200.230362 95.997322,200.417404 96.375565,200.604446 
	C95.839005,201.054504 95.302444,201.504562 94.488228,201.980759 
	C94.403931,201.474823 94.597290,200.942780 95.015747,200.227020 
z"/>
<path fill="#FD943D" opacity="1.000000" stroke="none" 
	d="
M269.362823,268.251495 
	C269.885254,268.493378 270.406433,269.032410 270.917236,269.883606 
	C270.391754,269.646729 269.876648,269.097687 269.362823,268.251495 
z"/>
<path fill="#FD943D" opacity="1.000000" stroke="none" 
	d="
M266.569733,233.762421 
	C266.046936,233.520050 265.554504,232.986908 265.065460,232.152893 
	C265.579285,232.391891 266.089661,232.931763 266.569733,233.762421 
z"/>
<path fill="#FD943D" opacity="1.000000" stroke="none" 
	d="
M264.428955,230.775330 
	C263.960968,230.506073 263.510376,229.949097 263.078033,229.094513 
	C263.546295,229.360489 263.996338,229.924057 264.428955,230.775330 
z"/>
<path fill="#FD943D" opacity="1.000000" stroke="none" 
	d="
M262.570465,227.766846 
	C262.040527,227.534134 261.541504,227.014679 261.044067,226.197830 
	C261.564209,226.426971 262.082794,226.953522 262.570465,227.766846 
z"/>
<path fill="#FD943D" opacity="1.000000" stroke="none" 
	d="
M228.255630,206.973770 
	C228.700333,207.020645 229.317368,207.312790 229.920715,207.900543 
	C229.414001,207.870453 228.920990,207.544739 228.255630,206.973770 
z"/>
<path fill="#FD943D" opacity="1.000000" stroke="none" 
	d="
M247.737808,204.735321 
	C247.189270,204.487991 246.637360,203.941391 246.104111,203.068939 
	C246.659988,203.307419 247.197220,203.871719 247.737808,204.735321 
z"/>
<path fill="#FFFAF7" opacity="1.000000" stroke="none" 
	d="
M946.557007,234.496185 
	C895.699158,261.190369 841.497925,274.973816 785.085266,281.023041 
	C774.334656,282.175873 763.558594,283.118073 752.777771,283.941681 
	C750.467773,284.118134 748.086182,283.358490 745.737610,283.030090 
	C745.650635,282.432739 745.563660,281.835388 745.476746,281.238037 
	C748.816711,280.215240 752.093262,278.834137 755.507324,278.229614 
	C773.525024,275.039398 791.636353,272.353607 809.606384,268.922852 
	C858.126587,259.659546 904.716370,244.711258 947.590637,219.714767 
	C961.802490,211.429016 975.184448,201.727173 989.031067,192.805161 
	C998.354126,186.797836 1008.234131,182.661194 1019.631958,185.988098 
	C1024.942139,187.538071 1029.503296,190.397766 1034.046631,195.680222 
	C1030.541748,195.933807 1028.150513,196.450577 1025.834473,196.217545 
	C1012.683350,194.894241 1001.532776,199.370743 990.773376,206.644257 
	C976.452515,216.325409 961.538574,225.129318 946.557007,234.496185 
z"/>
<path fill="#FFFDFB" opacity="1.000000" stroke="none" 
	d="
M1672.056274,256.626892 
	C1667.246948,236.566788 1673.298828,217.891388 1687.739624,207.556396 
	C1694.298584,202.862274 1696.714233,202.816757 1703.392212,207.465149 
	C1716.112793,216.319687 1721.259766,228.947220 1719.677979,243.858093 
	C1718.007568,259.602692 1710.047729,271.713806 1695.204712,278.401825 
	C1693.614014,279.118622 1690.914185,278.638458 1689.260010,277.737854 
	C1680.841553,273.154388 1675.534912,265.842285 1672.056274,256.626892 
z"/>
<path fill="#FFFBF8" opacity="1.000000" stroke="none" 
	d="
M1745.118530,220.009491 
	C1753.013672,236.350113 1751.809570,251.844574 1741.236816,265.950714 
	C1731.736084,278.626434 1718.348999,283.421906 1701.213623,282.096375 
	C1716.302246,272.068451 1724.726562,259.014557 1725.668457,242.114624 
	C1726.633423,224.799927 1719.396118,211.178482 1704.460693,201.739548 
	C1716.792725,196.336166 1736.870239,205.406906 1745.118530,220.009491 
z"/>
<path fill="#FFFBF7" opacity="1.000000" stroke="none" 
	d="
M1681.562012,277.600067 
	C1683.008911,278.708740 1684.163330,279.592957 1685.480713,280.602142 
	C1675.460693,284.323883 1658.166016,278.203369 1649.116211,267.998291 
	C1638.743408,256.300995 1637.017212,236.552414 1645.059448,221.584915 
	C1652.924805,206.946442 1668.127197,199.245392 1685.734131,201.414368 
	C1672.680420,210.640213 1664.640625,222.493408 1663.987915,238.373672 
	C1663.340210,254.133591 1668.879150,267.312714 1681.562012,277.600067 
z"/>
<path fill="#FFFDFC" opacity="1.000000" stroke="none" 
	d="
M1421.431152,209.524231 
	C1434.428589,220.926178 1439.854736,234.965302 1435.934814,251.429077 
	C1431.949463,268.167816 1420.704224,278.973572 1404.145264,283.416382 
	C1389.007690,287.477814 1370.534058,278.068054 1361.705444,262.698792 
	C1349.788330,241.952927 1358.703369,213.520218 1380.446533,203.640106 
	C1395.088745,196.986603 1408.653076,199.736420 1421.431152,209.524231 
z"/>
<path fill="#FFFDFB" opacity="1.000000" stroke="none" 
	d="
M1858.128540,232.200531 
	C1860.844604,251.075317 1851.319580,269.471680 1834.687012,277.752106 
	C1832.631958,278.775208 1830.329468,279.879456 1828.122070,279.921448 
	C1816.708008,280.138550 1805.287598,280.022308 1793.386475,280.022308 
	C1793.318848,278.850250 1793.146362,277.242584 1793.145142,275.634827 
	C1793.127930,251.674988 1793.222778,227.714478 1793.046753,203.755936 
	C1793.016602,199.663177 1794.090088,198.130920 1798.326172,198.382889 
	C1803.963501,198.718216 1809.635620,198.465439 1815.292847,198.465454 
	C1839.598389,198.465530 1851.882812,208.027695 1858.128540,232.200531 
z"/>
</svg>