<?xml version="1.0" encoding="UTF-8" standalone="no" ?>
<!DOCTYPE svg PUBLIC "-//W3C//DTD SVG 1.1//EN" "http://www.w3.org/Graphics/SVG/1.1/DTD/svg11.dtd">
<svg xmlns="http://www.w3.org/2000/svg" xmlns:xlink="http://www.w3.org/1999/xlink" version="1.1" width="1080" height="1080" viewBox="0 0 1080 1080" xml:space="preserve">
<desc>Created with Fabric.js 5.2.4</desc>
<defs>
</defs>
<g transform="matrix(1 0 0 1 540 540)" id="9716a953-6bfd-47f2-9c6e-52b7b1bc29bf"  >
<rect style="stroke: none; stroke-width: 1; stroke-dasharray: none; stroke-linecap: butt; stroke-dashoffset: 0; stroke-linejoin: miter; stroke-miterlimit: 4; fill: rgb(255,255,255); fill-rule: nonzero; opacity: 1; visibility: hidden;" vector-effect="non-scaling-stroke"  x="-540" y="-540" rx="0" ry="0" width="1080" height="1080" />
</g>
<g transform="matrix(1 0 0 1 540 540)" id="602e8bc3-248d-4241-9585-7cb20fc3d7a9"  >
</g>
<g transform="matrix(3.25 0 0 3.25 540 540)"  >
<g style=""   >
		<g transform="matrix(1 0 0 1 74.14 159.93)" id="SVGRepo_iconCarrier"  >
<path style="stroke: none; stroke-width: 1; stroke-dasharray: none; stroke-linecap: butt; stroke-dashoffset: 0; stroke-linejoin: miter; stroke-miterlimit: 4; fill: rgb(34,34,34); fill-rule: nonzero; opacity: 1;" vector-effect="non-scaling-stroke"  transform=" translate(-198.9, -326.2)" d="M 189.517 324.407 C 189.74099999999999 326.229 189.983 328.10699999999997 190.231 330.031 C 196.696 330.031 202.831 330.031 208.531 330.023 C 208.52200000000002 328.045 208.52200000000002 326.413 208.52200000000002 326.413 Q 207.64300000000003 326.423 206.74900000000002 326.398 C 200.71391345681454 326.23644592980116 194.77234401196472 324.8675115939327 189.27500000000003 322.372 Q 189.39 323.377 189.517 324.407 Z" stroke-linecap="round" />
</g>
		<g transform="matrix(1 0 0 1 -0.68 -73.47)" id="SVGRepo_iconCarrier"  >
<path style="stroke: none; stroke-width: 1; stroke-dasharray: none; stroke-linecap: butt; stroke-dashoffset: 0; stroke-linejoin: miter; stroke-miterlimit: 4; fill: rgb(34,34,34); fill-rule: nonzero; opacity: 1;" vector-effect="non-scaling-stroke"  transform=" translate(-124.08, -92.81)" d="M 173.149 169.355 C 187.378 174.464 198.929 162.60399999999998 198.843 152.644 C 198.8020534459629 146.94993986571802 197.76298624091572 141.30716187140308 195.773 135.972 C 193.244 128.64000000000001 188.343 113.744 187.99699999999999 87.13300000000001 C 188.70499999999998 79.08000000000001 187.97699999999998 67.44500000000001 187.66 62.97300000000001 C 186.56 47.47300000000001 179.636 30.159000000000013 169.667 20.534000000000013 C 165.357 16.37300000000001 164.105 14.434000000000013 159.412 11.882000000000014 L 154.15300000000002 9.025000000000013 L 151.55900000000003 7.972000000000013 C 142.39205899840474 4.154608570902257 132.53783682465425 2.2637552315176688 122.60899999999995 2.4170000000000202 C 102.66400000000002 2.410000000000013 84.90900000000002 12.679000000000013 77.02800000000002 20.217000000000013 C 63.956 32.725 55.658 55.575 56.693 87.089 C 56.693 108.44800000000001 54.934 123.85300000000001 52.48 132.606 C 50.62858361112469 139.82199992614406 49.56965672291911 147.2183929913875 49.321999999999996 154.66400000000004 C 49.22899999999999 164.624 60.01499999999999 175.551 75.92699999999999 172.17999999999998 C 75.92699999999999 172.17999999999998 93.36599999999999 183.212 122.40299999999999 183.212 C 140.23053309725222 183.04831149130143 157.71240954170233 178.27460791090604 173.14899999999997 169.35500000000002 Z" stroke-linecap="round" />
</g>
		<g transform="matrix(1 0 0 1 -1.51 -43.6)" id="SVGRepo_iconCarrier"  >
<path style="stroke: none; stroke-width: 1; stroke-dasharray: none; stroke-linecap: butt; stroke-dashoffset: 0; stroke-linejoin: miter; stroke-miterlimit: 4; fill: rgb(255,255,255); fill-rule: nonzero; opacity: 1;" vector-effect="non-scaling-stroke"  transform=" translate(-123.26, -122.67)" d="M 75.415 174.673 C 76.415 174.332 92.851 166.644 93.19500000000001 166.52 C 98.39500000000001 164.644 98.18700000000001 161.303 98.84200000000001 157.565 C 99.44828879278977 154.30223708215078 99.81858179136557 151.00001224557357 99.95 147.68400000000003 C 88.06908044717171 140.75609659166446 79.40899483959245 129.4119308233765 75.85800000000002 116.125 C 75.22585188996446 116.17244512236118 74.5917207954764 116.18813152311957 73.95800000000001 116.172 C 71.77117003030548 115.80603327762155 69.71662617364815 114.87919729331698 67.99500000000002 113.482 C 65.87552517070293 111.67798709611853 64.1700816158354 109.4380575311555 62.99500000000002 106.91499999999999 C 60.50171853303666 101.92302549947483 59.42928326382333 96.34151884351105 59.89500000000001 90.781 C 59.95979865995757 89.36126067565522 60.32194281511357 87.97094054659438 60.958 86.7 C 62.07205360252826 84.83331603812601 63.97143669679343 83.57147268165717 66.124 83.268 C 68.87521987514981 82.83320003548 71.6350771981892 83.99573471241318 73.246 86.268 C 83.25099999999999 77.013 100.39099999999999 62.214 109.525 53.248 C 108.89500000000001 58.553999999999995 105.554 69.783 109.095 68.731 C 123.985 64.48299999999999 135.975 55.785 145.41899999999998 43.51199999999999 C 147.398 50.111999999999995 149.897 59.462999999999994 152.19699999999997 63.778999999999996 C 155.33299999999997 69.663 164.19699999999997 84.489 173.23799999999997 88.03699999999999 C 174.83688254131138 85.72674574003327 177.6197152983592 84.53910302901818 180.39399999999998 84.98299999999999 C 182.54646408682743 85.28822915224329 184.44503723201413 86.55149354551625 185.55799999999996 88.41899999999998 C 186.19331949717483 89.69016370490014 186.55510006728215 91.08039582035018 186.62 92.5 C 187.0814983193668 98.06030926319572 186.0060011680527 103.64051014703224 183.511 108.631 C 182.3357534128132 111.15281382562682 180.6302912305368 113.39140348608278 178.511 115.194 C 176.78822160818953 116.59000179020047 174.73309475132658 117.51575633578149 172.546 117.881 C 172.546 117.881 171.98399999999998 117.967 171.01 118.119 C 170.41 120.319 169.79 122.197 169.545 122.94 C 167.78199999999998 127.718 161.86399999999998 142.131 147.059 147.984 C 147.2165914612802 151.19677636126525 147.57865774910888 154.39625327188415 148.143 157.56299999999996 C 148.798 161.30100000000002 148.593 164.64200000000002 153.789 166.51800000000003 C 154.13299999999998 166.64200000000002 168.87099999999998 173.65400000000002 169.397 173.87000000000003 C 169.397 173.87000000000003 158.97 201.82900000000004 118.08099999999999 201.82900000000004 C 87.855 201.831 75.415 174.673 75.415 174.673 Z" stroke-linecap="round" />
</g>
		<g transform="matrix(1 0 0 1 54.87 -64.86)" id="SVGRepo_iconCarrier"  >
<path style="stroke: none; stroke-width: 1; stroke-dasharray: none; stroke-linecap: butt; stroke-dashoffset: 0; stroke-linejoin: miter; stroke-miterlimit: 4; fill: rgb(34,34,34); fill-rule: nonzero; opacity: 1;" vector-effect="non-scaling-stroke"  transform=" translate(-179.64, -101.41)" d="M 176 88.456 C 177.07179641253575 87.57599123778421 178.45574100362802 87.17039157113001 179.8329981299645 87.33264378053403 C 181.21025525630097 87.49489598993806 182.4620530194757 88.2110077695607 183.3 89.316 C 184.247 90.71600000000001 184.27900000000002 92.662 184.32000000000002 94.29 C 184.37685220898967 96.09193658221885 184.25222431643974 97.89502076959458 183.948 99.67200000000003 C 182.77100000000002 106.29200000000002 179.275 114.29700000000001 171.905 115.57200000000002 C 170.6336519530325 115.93347356257206 169.88750106703665 117.24814156158506 170.229 118.52500000000002 C 170.60601440862985 119.78356376923922 171.9070560247656 120.52223102826481 173.181 120.20100000000002 C 180.911 118.86700000000002 185.51600000000002 111.62900000000002 187.675 104.66200000000002 C 188.82912008110503 100.94884318671316 189.30173567738294 97.05747204775412 189.07000000000002 93.17600000000003 C 188.829 89.36800000000002 187.67000000000002 85.75300000000001 184.145 83.78300000000002 C 180.4122210284186 81.74521667031173 175.80377609739386 82.25779879831387 172.61 85.06600000000002 C 171.684243157348 86.00794933251197 171.684243157348 87.51805066748807 172.61 88.46000000000002 C 173.5581341062499 89.37051500205199 175.05586589375014 89.37051500205199 176.00400000000002 88.46000000000002 Z" stroke-linecap="round" />
</g>
		<g transform="matrix(1 0 0 1 32.25 -36.25)" id="SVGRepo_iconCarrier"  >
<path style="stroke: none; stroke-width: 1; stroke-dasharray: none; stroke-linecap: butt; stroke-dashoffset: 0; stroke-linejoin: miter; stroke-miterlimit: 4; fill: rgb(34,34,34); fill-rule: nonzero; opacity: 1;" vector-effect="non-scaling-stroke"  transform=" translate(-157.02, -130.03)" d="M 170.066 110.341 C 169.946 114.008 168.661 117.841 167.526 121.38499999999999 C 167.25300000000001 122.23499999999999 166.947 123.068 166.614 123.89599999999999 C 166.526 124.11399999999999 166.435 124.332 166.345 124.54999999999998 C 166.209 124.88099999999999 166.588 123.99499999999998 166.358 124.51799999999999 C 166.311 124.62399999999998 166.266 124.73199999999999 166.219 124.83899999999998 Q 165.838 125.70799999999998 165.426 126.56299999999999 C 162.7895783971788 132.38031634813487 158.8015570232637 137.48362602409134 153.79399999999998 141.44799999999998 C 149.9773579839486 144.3321492030936 145.57347607242977 146.34223111743646 140.89399999999998 147.33599999999998 C 137.878 147.998 139.15399999999997 152.62599999999998 142.17 151.96499999999997 C 156.59099999999998 148.80199999999996 167.18599999999998 137.08099999999996 171.892 123.46499999999997 C 173.32999999999998 119.30399999999997 174.72 114.76499999999997 174.865 110.34199999999997 C 174.965 107.25199999999997 170.16500000000002 107.25599999999997 170.065 110.34199999999997 Z" stroke-linecap="round" />
</g>
		<g transform="matrix(1 0 0 1 -57.91 -66.59)" id="SVGRepo_iconCarrier"  >
<path style="stroke: none; stroke-width: 1; stroke-dasharray: none; stroke-linecap: butt; stroke-dashoffset: 0; stroke-linejoin: miter; stroke-miterlimit: 4; fill: rgb(34,34,34); fill-rule: nonzero; opacity: 1;" vector-effect="non-scaling-stroke"  transform=" translate(-66.86, -99.68)" d="M 73.908 83.35 C 71.1511791150667 80.90149641959312 67.27602025138947 80.15677529539535 63.808 81.40899999999999 C 60.031 82.88399999999999 58.072 86.00899999999999 57.584 89.94099999999999 C 56.67285152545752 97.60563612171163 58.61733932584033 105.33730694718103 63.04600000000001 111.65899999999999 C 65.45307933776337 115.18042438734184 69.13459798488867 117.62843527698092 73.313 118.48599999999999 C 74.58590663204623 118.79965250766021 75.88200948059496 118.0637892372782 76.265 116.80999999999999 C 76.60644501556187 115.53339085515422 75.86021141432455 114.21902236419207 74.589 113.85799999999999 C 67.22 112.58099999999999 63.73 104.57199999999999 62.558 97.95199999999998 C 62.25563147926362 96.17482400045435 62.13234729703456 94.37179283535431 62.19 92.57 C 62.230999999999995 90.94699999999997 62.257 88.98599999999998 63.214 87.59599999999998 C 64.05314528451233 86.4922105143395 65.30553729668208 85.77766396342372 66.68273731997007 85.61692774152763 C 68.05993734325807 85.45619151963156 69.44321959682317 85.86312238912186 70.514 86.74399999999997 C 71.46479639817247 87.64787488657514 72.95720360182753 87.64787488657514 73.908 86.74399999999997 C 74.83375684265204 85.80205066748802 74.83375684265204 84.29194933251192 73.908 83.34999999999997 Z" stroke-linecap="round" />
</g>
		<g transform="matrix(1 0 0 1 -32.37 -38.44)" id="SVGRepo_iconCarrier"  >
<path style="stroke: none; stroke-width: 1; stroke-dasharray: none; stroke-linecap: butt; stroke-dashoffset: 0; stroke-linejoin: miter; stroke-miterlimit: 4; fill: rgb(34,34,34); fill-rule: nonzero; opacity: 1;" vector-effect="non-scaling-stroke"  transform=" translate(-92.39, -127.84)" d="M 71.164 104.1 C 71.94276730319278 111.76391081097611 73.94059702831474 119.25425314639448 77.08200000000002 126.28800000000001 C 81.3657189742927 135.28832913124802 88.05665628722214 142.92759916905985 96.41399999999999 148.35999999999999 C 100.69270288906144 151.19053672752895 105.5246760187484 153.0783298275082 110.589 153.89800000000002 C 111.86145656341725 154.20624097534727 113.15423393717545 153.47182781281595 113.541 152.22100000000003 C 113.88302209408613 150.94431692904325 113.1365706301489 149.62956470855238 111.865 149.26900000000003 C 103.225 147.98500000000004 95.901 142.96300000000002 90.00899999999999 136.71500000000003 C 84.0987917815324 130.37488693224503 79.90624052882585 122.63002624374774 77.82899999999998 114.21500000000003 C 77.33499999999998 112.30000000000003 76.92899999999997 110.36200000000004 76.59099999999998 108.41500000000003 Q 76.38399999999999 107.21500000000003 76.21299999999998 106.01500000000003 C 76.18899999999998 105.84900000000003 76.16599999999998 105.68400000000003 76.14299999999999 105.51500000000003 C 76.03299999999999 104.71500000000003 76.19999999999999 105.97000000000003 76.10199999999999 105.20400000000002 Q 76.032 104.65500000000002 75.96399999999998 104.10400000000003 C 75.92490109694228 102.79505389140371 74.8729461085963 101.74309890305773 73.56399999999998 101.70400000000002 C 72.2419223960589 101.71218647395742 71.17218647395737 102.78192239605895 71.16399999999997 104.10400000000003 Z" stroke-linecap="round" />
</g>
		<g transform="matrix(1 0 0 1 35.27 -99.95)" id="SVGRepo_iconCarrier"  >
<path style="stroke: none; stroke-width: 1; stroke-dasharray: none; stroke-linecap: butt; stroke-dashoffset: 0; stroke-linejoin: miter; stroke-miterlimit: 4; fill: rgb(34,34,34); fill-rule: nonzero; opacity: 1;" vector-effect="non-scaling-stroke"  transform=" translate(-160.04, -66.33)" d="M 143.281 44.737 C 145.5 52.21 147.298 60.018 151.15200000000002 66.85900000000001 C 154.57342001136038 73.24538692985577 158.8635791495253 79.12668761220358 163.89999999999998 84.33499999999998 C 166.729 87.125 170.043 89.70599999999999 173.928 90.785 C 176.909 91.613 178.18099999999998 86.985 175.204 86.157 C 172.38414122796104 85.18740205866703 169.83651881395176 83.55858304521551 167.773 81.40599999999999 C 165.21864777930827 78.91459718343508 162.90815182211404 76.18486340908038 160.873 73.25399999999999 C 157.18486255347338 68.33925718034911 154.22379833946218 62.91894695966022 152.081 57.15999999999998 C 150.535 52.64399999999999 149.271 48.03599999999999 147.91199999999998 43.459999999999994 C 147.03499999999997 40.50599999999999 142.40099999999998 41.75999999999999 143.284 44.736999999999995 Z" stroke-linecap="round" />
</g>
		<g transform="matrix(1 0 0 1 -15.94 -100.97)" id="SVGRepo_iconCarrier"  >
<path style="stroke: none; stroke-width: 1; stroke-dasharray: none; stroke-linecap: butt; stroke-dashoffset: 0; stroke-linejoin: miter; stroke-miterlimit: 4; fill: rgb(34,34,34); fill-rule: nonzero; opacity: 1;" vector-effect="non-scaling-stroke"  transform=" translate(-108.83, -65.31)" d="M 143.694 41.848 C 138.31844120281067 48.95511081088328 131.66430052956528 54.99711530782734 124.073 59.66399999999999 C 120.32977751574558 61.91661857041187 116.36452894888353 63.777768789321 112.24 65.21799999999999 Q 110.649 65.771 109.032 66.247 C 108.274 66.47 108.176 66.327 108.883 66.428 C 109.14700173762468 66.47223397949335 109.39524505551915 66.58344423147659 109.604 66.75099999999999 C 109.70471021036941 66.83624409884008 109.798968070299 66.92883072011841 109.886 67.02799999999999 C 110.14399999999999 67.37299999999999 109.838 67.267 109.902 66.901 C 109.956 66.59299999999999 109.935 67.354 109.919 67.00099999999999 C 109.911 66.83299999999998 109.898 66.66699999999999 109.89399999999999 66.50099999999999 C 109.88896076118995 65.77560973616868 109.93205540619198 65.05068431249133 110.023 64.33099999999999 C 110.408 60.90099999999999 111.469 56.92599999999999 111.923 53.24299999999999 C 112.191 51.07499999999999 109.18 50.21899999999999 107.82300000000001 51.542999999999985 C 98.3 60.89 88.132 69.587 78.211 78.509 C 75.67399999999999 80.79 73.143 83.08 70.646 85.409 C 68.38 87.519 71.78 90.909 74.04 88.80300000000001 C 83.846 79.67200000000001 94.02000000000001 70.94300000000001 103.882 61.87400000000001 C 106.35900000000001 59.59600000000001 108.819 57.30000000000001 111.22200000000001 54.94500000000001 L 107.12200000000001 53.245000000000005 C 107.03200000000001 53.974000000000004 107.16500000000002 52.973000000000006 107.09500000000001 53.43300000000001 Q 107.04700000000001 53.751000000000005 106.99500000000002 54.068000000000005 Q 106.89500000000002 54.682 106.78000000000002 55.291000000000004 C 106.60900000000001 56.227000000000004 106.42400000000002 57.160000000000004 106.24300000000001 58.091 C 105.85100000000001 60.116 105.474 62.145 105.23500000000001 64.191 C 104.89300000000001 67.126 105.26900000000002 71.95700000000001 109.51500000000001 71.084 C 111.82590275514309 70.52219668711392 114.08422022703905 69.76273288545408 116.265 68.81400000000001 C 118.67457779054861 67.86438502147979 121.03161427584752 66.78651066784289 123.32600000000002 65.58500000000001 C 127.66969929503429 63.273421312685635 131.75876852207614 60.512294075606064 135.526 57.347000000000016 C 139.80691186970512 53.73960714014295 143.68391824638874 49.67852426940073 147.089 45.23499999999999 C 147.9843632846759 44.280819453543295 147.9843632846759 42.79518054645672 147.089 41.84100000000001 C 146.14837466371245 40.9120127794396 144.63562533628755 40.9120127794396 143.695 41.84100000000001 Z" stroke-linecap="round" />
</g>
		<g transform="matrix(1 0 0 1 -20.69 -121.57)" id="SVGRepo_iconCarrier"  >
<path style="stroke: none; stroke-width: 1; stroke-dasharray: none; stroke-linecap: butt; stroke-dashoffset: 0; stroke-linejoin: miter; stroke-miterlimit: 4; fill: rgb(34,34,34); fill-rule: nonzero; opacity: 1;" vector-effect="non-scaling-stroke"  transform=" translate(-104.08, -44.71)" d="M 152.2 5.658 C 141.97911403601225 1.5065673123790084 130.9846607556256 -0.3971780178662998 119.963 0.07600000000000673 C 108.70472999461977 0.6998715924079669 97.74290230762999 3.916892518343141 87.93299999999998 9.475999999999999 C 80.5854310918017 13.422841621232303 74.19132473775973 18.930859249758164 69.20000000000002 25.612999999999957 C 64.13109152629661 32.818368166219756 60.40809184568867 40.881648937761234 58.211 49.41300000000005 C 54.854 61.632999999999996 53.894999999999996 74.464 54.292 87.09299999999999 C 54.392 90.17399999999999 59.192 90.18799999999999 59.092 87.09299999999999 C 58.492 67.89299999999999 60.87 47.12699999999999 71.54599999999999 30.65299999999999 C 75.58096507099731 24.497035194031767 80.9319719058059 19.313386076020016 87.21299999999998 15.475999999999999 C 95.93982580630669 9.939542506295187 105.79233836972695 6.420666005611093 116.05199999999998 5.176000000000004 C 127.91846893025968 3.97748806207792 139.89715329580756 5.732602875338514 150.921 10.28499999999998 C 152.19790479845514 10.628758555511853 153.51381277188682 9.881650912059452 153.873 8.609000000000002 C 154.19224106732608 7.3364850243172075 153.45584454032294 6.037557259113198 152.2 5.6579999999999995 Z" stroke-linecap="round" />
</g>
		<g transform="matrix(1 0 0 1 49.1 -116.76)" id="SVGRepo_iconCarrier"  >
<path style="stroke: none; stroke-width: 1; stroke-dasharray: none; stroke-linecap: butt; stroke-dashoffset: 0; stroke-linejoin: miter; stroke-miterlimit: 4; fill: rgb(34,34,34); fill-rule: nonzero; opacity: 1;" vector-effect="non-scaling-stroke"  transform=" translate(-173.87, -49.51)" d="M 190.4 87.133 C 190.79931841250135 81.37662557371743 190.82169951844418 75.60029596233238 190.46700000000004 69.84100000000001 C 190.32029770490607 64.69077503324368 189.81507532042195 59.5570205919648 188.955 54.476999999999954 C 186.76700000000002 42.79399999999999 181.97400000000002 31.08699999999999 174.264 21.94599999999999 C 172.257 19.565999999999992 169.964 17.42799999999999 167.757 15.23299999999999 C 165.64873718232784 13.097261269220397 163.24815429490212 11.271404186680465 160.627 9.809999999999985 C 157.919 8.31899999999999 155.494 12.46299999999999 158.204 13.95499999999999 C 160.2877829993557 15.08919222828182 162.2043439957428 16.506673337462217 163.899 18.166999999999973 C 165.849 20.07499999999999 167.843 21.979999999999986 169.686 23.991999999999987 C 173.29820050940117 28.0731270867942 176.27952921961153 32.671687583504244 178.53099999999998 37.63499999999996 C 180.99943361899207 42.91266830645325 182.8393743413443 48.46202618740397 184.01299999999998 54.168999999999954 C 184.92175106886222 58.94440589544303 185.45670620413242 63.78340944092177 185.613 68.64199999999995 C 186.02700617501227 74.7988165536106 186.02399930921788 80.97658937626647 185.604 87.13299999999995 C 185.6148725970803 88.45395361158238 186.68304638841764 89.5221274029197 188.00400000000002 89.533 C 189.31854251093804 89.50695131329549 190.3779513132955 88.447542510938 190.40400000000002 87.133 Z" stroke-linecap="round" />
</g>
		<g transform="matrix(1 0 0 1 -62.15 -36.32)" id="SVGRepo_iconCarrier"  >
<path style="stroke: none; stroke-width: 1; stroke-dasharray: none; stroke-linecap: butt; stroke-dashoffset: 0; stroke-linejoin: miter; stroke-miterlimit: 4; fill: rgb(34,34,34); fill-rule: nonzero; opacity: 1;" vector-effect="non-scaling-stroke"  transform=" translate(-62.62, -129.95)" d="M 54.293 87.089 C 54.286 95.84 54.022999999999996 104.603 53.225 113.321 C 52.776953299570124 119.17686224391275 51.86577044339017 124.98803540264727 50.50000000000001 130.7 C 48.6142384470042 137.8063720284544 47.4384752250996 145.08237001791014 46.989999999999995 152.42100000000002 C 46.734636707395794 155.36000333726636 47.125793635367444 158.3192795724445 48.136 161.09099999999998 C 49.27955094185216 163.99580022158105 51.048783842552616 166.61311774700937 53.318000000000005 168.75699999999998 C 59.58200000000001 174.64699999999996 68.32400000000001 176.176 76.561 174.49099999999999 C 77.83926305348338 174.13864232960793 78.58985767039205 172.81676305348336 78.2375 171.5385 C 77.88514232960796 170.2602369465166 76.56326305348338 169.50964232960794 75.28500000000001 169.862 C 69.04700000000001 171.13899999999998 62.16000000000001 170.13299999999998 57.26400000000001 165.862 C 55.33395536936398 164.2047472846985 53.79681675160847 162.1388329824351 52.76400000000001 159.814 C 51.81953999214327 157.41183457624774 51.48790255494671 154.81234693380756 51.79900000000001 152.25 C 52.24289516622361 145.39905577929662 53.35790307831732 138.60819203111407 55.128000000000014 131.97500000000002 C 56.45429677690446 126.42550812554565 57.365152801557045 120.78488595453182 57.85299999999999 115.1 C 58.791000000000004 105.8 59.086 96.43299999999999 59.093 87.086 C 59.093 83.997 54.293000000000006 83.992 54.293000000000006 87.086 Z" stroke-linecap="round" />
</g>
		<g transform="matrix(1 0 0 1 61.23 -37.41)" id="SVGRepo_iconCarrier"  >
<path style="stroke: none; stroke-width: 1; stroke-dasharray: none; stroke-linecap: butt; stroke-dashoffset: 0; stroke-linejoin: miter; stroke-miterlimit: 4; fill: rgb(34,34,34); fill-rule: nonzero; opacity: 1;" vector-effect="non-scaling-stroke"  transform=" translate(-186, -128.86)" d="M 185.6 87.133 C 185.79999999999998 101.18799999999999 187.206 115.37299999999999 191.031 128.933 C 192.382 133.72299999999998 194.288 138.364 195.394 143.219 C 195.8508174516865 145.20710349124855 196.15701943797754 147.2268331868494 196.31 149.261 C 196.393 150.384 196.446 151.513 196.446 152.64 C 196.44308341650702 153.19252709390798 196.4123779589849 153.74455781935998 196.35399999999998 154.29399999999998 C 195.92457041394934 156.97129698911425 194.80283379374447 159.4898611400721 193.1 161.6 C 188.60554139520312 167.53040648392107 180.71711402429963 169.75097979386004 173.789 167.036 C 172.51073694651663 166.68364232960795 171.18885767039203 167.43423694651662 170.83649999999997 168.7125 C 170.48414232960795 169.99076305348336 171.23473694651662 171.31264232960794 172.51299999999998 171.665 C 183.17818266236034 175.4312395758628 194.94899109689007 170.3859239109127 199.57599999999996 160.065 C 200.92851152986904 156.86392029261103 201.47052158595523 153.37863763158043 201.15399999999997 149.918 C 200.84559092435433 145.3304762602153 199.9420170267703 140.80252224218827 198.46599999999995 136.44799999999995 C 197.831 134.523 197.15499999999997 132.613 196.55299999999997 130.67600000000002 C 194.97764442357004 125.56812787873473 193.7284607484205 120.36531127236982 192.813 115.09900000000002 C 191.2654193990789 105.85610657356969 190.45852068263997 96.50437449568629 190.40000000000003 87.133 C 190.357 84.047 185.55700000000002 84.038 185.6 87.133 Z" stroke-linecap="round" />
</g>
		<g transform="matrix(1 0 0 1 -35.17 -5.1)" id="SVGRepo_iconCarrier"  >
<path style="stroke: none; stroke-width: 1; stroke-dasharray: none; stroke-linecap: butt; stroke-dashoffset: 0; stroke-linejoin: miter; stroke-miterlimit: 4; fill: rgb(34,34,34); fill-rule: nonzero; opacity: 1;" vector-effect="non-scaling-stroke"  transform=" translate(-89.6, -161.18)" d="M 80.544 174.994 Q 85.078 172.915 89.6 170.811 Q 91.39999999999999 169.975 93.20899999999999 169.14000000000001 C 93.50899999999999 169.00300000000001 93.80199999999999 168.87 94.097 168.73100000000002 C 94.18659071270599 168.70295128420636 94.27252758143885 168.66434683145528 94.353 168.616 Q 93.383 169.01600000000002 94.202 168.69600000000003 C 94.511 168.57000000000002 94.82 168.44000000000003 95.127 168.30900000000003 C 98.09311444399708 167.0178452980044 100.19266493519937 164.29918207435594 100.692 161.10300000000004 C 101.44598570031557 157.25387993616454 101.97057694241792 153.36335634499028 102.26299999999998 149.452 C 102.26299995662575 148.12651663107636 101.18848336892367 147.05200007853605 99.863 147.05200007853605 C 98.53751663107631 147.05200007853605 97.46300004337424 148.12651663107636 97.463 149.45200000000003 C 97.2025804886664 152.9350457897003 96.73508725744826 156.39950455676342 96.063 159.82700000000003 C 95.96084575237975 160.4035819524459 95.81611633461578 160.97180368500653 95.62999999999998 161.52700000000002 Q 95.47599999999998 161.93400000000003 95.59599999999998 161.638 C 95.52699999999997 161.788 95.45199999999997 161.93800000000002 95.37099999999998 162.078 C 95.28206412068505 162.2801191365514 95.16005884270861 162.46599975396703 95.00999999999998 162.62800000000001 C 94.13511086541563 163.4658303424574 93.08223174866059 164.09516490542688 91.92999999999998 164.46900000000002 C 87.29099999999998 166.51100000000002 82.72999999999998 168.735 78.12099999999998 170.848 C 76.98469805522464 171.52289027432877 76.60116206796623 172.98531611192385 77.25999999999998 174.131 C 77.94778674181612 175.25004860733998 79.3945468632314 175.62947610186893 80.54299999999998 174.992 Z" stroke-linecap="round" />
</g>
		<g transform="matrix(1 0 0 1 32.11 -5.87)" id="SVGRepo_iconCarrier"  >
<path style="stroke: none; stroke-width: 1; stroke-dasharray: none; stroke-linecap: butt; stroke-dashoffset: 0; stroke-linejoin: miter; stroke-miterlimit: 4; fill: rgb(34,34,34); fill-rule: nonzero; opacity: 1;" vector-effect="non-scaling-stroke"  transform=" translate(-156.87, -160.41)" d="M 166.783 170.242 L 166.773 170.242 L 167.984 170.57 C 163.579 168.492 159.222 166.218 154.729 164.337 C 152.067 163.22299999999998 151.329 162.214 150.86 159.50699999999998 C 150.16557284468564 155.7298271705578 149.69574818895447 151.91479753890982 149.45299999999997 148.08199999999994 C 149.288 145.00899999999996 144.487 144.98999999999995 144.653 148.08199999999997 C 144.92250059063878 152.3877832404043 145.45684476318348 156.67288953910492 146.253 160.91299999999993 C 146.7081546029209 164.1757158670186 148.81860482762028 166.97086136088913 151.832 168.30199999999996 Q 152.297 168.50199999999995 152.765 168.69299999999996 Q 153.593 169.01399999999995 152.62699999999998 168.61799999999997 C 152.71573696883505 168.66981212403482 152.80956304364068 168.71236895082166 152.90699999999998 168.74499999999998 C 153.22599999999997 168.896 153.54699999999997 169.045 153.867 169.19099999999997 Q 155.767 170.07999999999998 157.658 170.97799999999998 L 162.083 173.07099999999997 L 164.322 174.12999999999997 C 165.0685102204296 174.60407807287027 165.90686094995942 174.91488127015936 166.782 175.04199999999997 C 169.87 175.04199999999997 169.876 170.24199999999996 166.782 170.24199999999996 Z" stroke-linecap="round" />
</g>
		<g transform="matrix(1 0 0 1 -2.51 84.71)" id="SVGRepo_iconCarrier"  >
<path style="stroke: none; stroke-width: 1; stroke-dasharray: none; stroke-linecap: butt; stroke-dashoffset: 0; stroke-linejoin: miter; stroke-miterlimit: 4; fill: rgb(252,128,22); fill-rule: nonzero; opacity: 1;" vector-effect="non-scaling-stroke"  transform=" translate(-122.25, -250.99)" d="M 41.744 188.881 Q 41.438 189.096 41.144 189.312 C 40.844 189.542 37.983999999999995 191.952 37.064 192.872 C 31.484 198.502 28.774 206.292 26.433999999999997 213.86200000000002 C 22.313999999999997 224.782 11.753999999999998 260.122 9.873999999999999 275.84200000000004 C 8.443999999999999 287.71200000000005 8.443999999999999 299.58200000000005 12.244 310.812 C 13.204 313.702 17.364 321.29200000000003 25.994 322.902 C 33.174 324.24199999999996 42.454 323.382 48.024 318.822 C 50.753 316.596 53.437 312.885 55.784 308.911 C 54.874 315.222 53.583999999999996 322.54200000000003 52.333999999999996 329.202 C 52.333999999999996 329.202 52.279999999999994 329.555 52.19199999999999 330.126 C 92.76899999999999 330.101 148.426 330.06199999999995 190.24399999999997 330.02599999999995 L 190.17399999999998 329.585 C 189.85399999999998 327.09499999999997 189.54399999999998 324.685 189.27399999999997 322.375 C 197.79228547007156 326.26698322265247 207.32212189320308 327.36940645926154 216.50399999999996 325.525 C 216.81399999999996 325.41499999999996 216.99399999999997 325.34499999999997 216.99399999999997 325.34499999999997 C 228.17399999999998 321.30499999999995 234.34399999999997 313.48499999999996 235.414 299.80499999999995 C 236.0048217478979 283.4192809100906 233.88288367836674 267.0485962813036 229.13399999999996 251.3549999999999 C 224.01399999999998 233.95499999999996 222.17399999999998 227.24499999999995 219.64399999999998 220.91499999999996 C 215.664 209.47499999999997 211.07399999999998 199.21499999999997 204.54399999999998 192.22499999999997 C 199.80602561903143 187.0831034253376 194.07362260461656 182.95645365887754 187.694 180.09499999999997 C 180.994 177.35499999999996 174.754 174.65499999999997 168.214 171.84499999999997 C 157.864 177.88499999999996 137.704 183.27499999999998 122.404 183.21499999999997 C 106.244 183.17499999999998 89.124 178.045 77.824 172.16499999999996 C 65.042 176.911 50.438 182.748 41.744 188.881 Z" stroke-linecap="round" />
</g>
		<g transform="matrix(1 0 0 1 64.96 159.7)" id="SVGRepo_iconCarrier"  >
<path style="stroke: none; stroke-width: 1; stroke-dasharray: none; stroke-linecap: butt; stroke-dashoffset: 0; stroke-linejoin: miter; stroke-miterlimit: 4; fill: rgb(34,34,34); fill-rule: nonzero; opacity: 1;" vector-effect="non-scaling-stroke"  transform=" translate(-189.73, -325.98)" d="M 192.573 329.582 C 192.264 327.182 191.955 324.782 191.673 322.372 C 191.65285110896602 321.7393439220289 191.40417281866556 321.13541093129925 190.973 320.672 C 190.0357545749043 319.7348167304392 188.51624542509572 319.7348167304392 187.579 320.672 C 187.12040387347494 321.117338231106 186.8669509722994 321.7328667053894 186.87900000000002 322.372 C 187.16100000000003 324.778 187.47000000000003 327.18 187.77900000000002 329.582 C 187.80049157408524 330.21436742942205 188.04898381531953 330.8178485867054 188.479 331.282 C 189.41624542509572 332.2191832695608 190.9357545749043 332.2191832695608 191.87300000000002 331.282 C 192.33251442617305 330.8372843123758 192.5861394338076 330.22133786526325 192.573 329.582 Z" stroke-linecap="round" />
</g>
		<g transform="matrix(1 0 0 1 71.03 73.89)" id="SVGRepo_iconCarrier"  >
<path style="stroke: none; stroke-width: 1; stroke-dasharray: none; stroke-linecap: butt; stroke-dashoffset: 0; stroke-linejoin: miter; stroke-miterlimit: 4; fill: rgb(34,34,34); fill-rule: nonzero; opacity: 1;" vector-effect="non-scaling-stroke"  transform=" translate(-195.8, -240.16)" d="M 193.837 270.81 C 196.242 254.69400000000002 198.637 238.577 200.837 222.431 Q 201.673 216.294 202.462 210.15200000000002 C 202.4554353395527 208.82924531406945 201.38475468593055 207.7585646604473 200.06199999999998 207.752 C 198.74984228558978 207.78363192771693 197.6936319277169 208.8398422855898 197.66199999999998 210.15200000000002 C 195.75099999999998 225.08800000000002 193.58299999999997 239.991 191.38299999999998 254.887 Q 190.30299999999997 262.212 189.20799999999997 269.534 C 188.89913983823038 270.8062398585361 189.63323925526907 272.0992359677832 190.88399999999996 272.486 C 192.16075698873902 272.8286000420904 193.47589369798285 272.0819302844032 193.83599999999996 270.81 Z" stroke-linecap="round" />
</g>
		<g transform="matrix(1 0 0 1 -70.71 152.78)" id="SVGRepo_iconCarrier"  >
<path style="stroke: none; stroke-width: 1; stroke-dasharray: none; stroke-linecap: butt; stroke-dashoffset: 0; stroke-linejoin: miter; stroke-miterlimit: 4; fill: rgb(34,34,34); fill-rule: nonzero; opacity: 1;" vector-effect="non-scaling-stroke"  transform=" translate(-54.06, -319.06)" d="M 53.469 308.274 C 52.485 315.064 51.283 321.821 50.019 328.564 C 49.70265837015819 329.8372771092212 50.43951453919079 331.13512878641944 51.695 331.516 C 52.97146126849233 331.8562934580312 54.28506456911529 331.11049429412736 54.647 329.84000000000003 C 55.911 323.09700000000004 57.113 316.34000000000003 58.097 309.55 C 58.40480348244965 308.2779082892689 57.6710920136133 306.98559548735665 56.421 306.598 C 55.14424301126094 306.2553999579096 53.8291063020171 307.0020697155968 53.469 308.274 Z" stroke-linecap="round" />
</g>
		<g transform="matrix(1 0 0 1 10.66 97.81)" id="SVGRepo_iconCarrier"  >
<path style="stroke: none; stroke-width: 1; stroke-dasharray: none; stroke-linecap: butt; stroke-dashoffset: 0; stroke-linejoin: miter; stroke-miterlimit: 4; fill: rgb(255,255,255); fill-rule: nonzero; opacity: 1;" vector-effect="non-scaling-stroke"  transform=" translate(-135.42, -264.08)" d="M 169.973 265.8 C 164.973 272.5 159.99300000000002 279.73 155.113 286.81 C 155.063 286.78000000000003 155.023 286.75 154.973 286.72 C 154.65300000000002 286.51000000000005 154.34300000000002 286.3 154.043 286.1 C 152.823 285.29 151.703 284.57000000000005 150.793 284 L 150.633 283.9 C 150.46300000000002 283.78999999999996 150.293 283.69 150.143 283.59999999999997 L 149.973 283.59999999999997 C 141.943 283.43999999999994 131.673 284.45 123.89300000000001 283.74999999999994 C 119.70300000000002 283.36999999999995 107.16300000000001 282.8299999999999 102.83300000000001 280.23999999999995 C 100.81300000000002 279.03 100.35300000000001 276.03 101.45300000000002 273.94999999999993 C 102.73300000000002 271.5399999999999 105.61300000000001 271.7099999999999 108.34300000000002 271.88999999999993 C 110.27300000000002 272.00999999999993 113.15300000000002 272.3299999999999 115.95300000000002 272.62999999999994 L 115.96300000000002 272.62999999999994 C 118.43300000000002 272.9099999999999 120.84300000000002 273.16999999999996 122.46300000000002 273.2699999999999 C 127.56300000000002 272.8399999999999 132.30300000000003 272.63999999999993 139.293 270.2199999999999 C 140.423 269.8299999999999 141.613 269.38999999999993 142.87300000000002 268.8699999999999 L 150.50300000000001 261.0399999999999 C 150.28179656577035 259.9333754311719 150.00477618052983 258.83864427022144 149.673 257.75999999999993 C 149.273 256.38999999999993 148.843 254.97999999999993 148.613 254.05999999999995 C 148.253 252.60999999999996 147.543 250.87999999999994 146.973 249.12999999999994 L 146.973 249.11999999999995 C 146.293 247.03999999999994 145.83300000000003 244.93999999999994 146.453 243.27999999999994 C 146.89069224082266 241.85524630825367 148.393488372396 241.04810654619203 149.823 241.46999999999994 L 149.833 241.46999999999994 C 149.963 241.48999999999995 150.083 241.51999999999995 150.213 241.54999999999995 C 152.983 242.25999999999996 154.893 244.72999999999996 156.41299999999998 247.14999999999995 C 157.93299999999996 249.56999999999994 160.17299999999997 252.34999999999994 162.653 253.76999999999995 L 163.513 254.44999999999996 C 166.44097608151583 256.5141146269586 168.4412180372812 259.64555266183726 169.083 263.16999999999996 C 169.14825862314297 263.959573758517 169.36200197260393 264.72972836689235 169.713 265.43999999999994 C 169.79060182869452 265.56629321579493 169.87750924636026 265.68662656333214 169.973 265.8 Z" stroke-linecap="round" />
</g>
		<g transform="matrix(1 0 0 1 0.33 93.5)" id="SVGRepo_iconCarrier"  >
<path style="stroke: none; stroke-width: 1; stroke-dasharray: none; stroke-linecap: butt; stroke-dashoffset: 0; stroke-linejoin: miter; stroke-miterlimit: 4; fill: rgb(255,255,255); fill-rule: nonzero; opacity: 1;" vector-effect="non-scaling-stroke"  transform=" translate(-125.1, -259.78)" d="M 99.064 245.452 C 98.064 253.177 100.64099999999999 262.86 107.207 267.818 C 114.64099999999999 273.43 121.976 275.151 131.143 273.5 C 137.157 272.417 143.643 268.013 147.173 262.89 C 150.451 258.126 151.554 251.17299999999997 151.31 245.452 C 148.333 251.043 136.13 252.167 125.947 252.292 C 116.757 252.405 102.48400000000001 248.977 99.06400000000001 245.452 Z" stroke-linecap="round" />
</g>
		<g transform="matrix(1 0 0 1 0.75 73.22)" id="SVGRepo_iconCarrier"  >
<path style="stroke: none; stroke-width: 1; stroke-dasharray: none; stroke-linecap: butt; stroke-dashoffset: 0; stroke-linejoin: miter; stroke-miterlimit: 4; fill: rgb(255,255,255); fill-rule: nonzero; opacity: 1;" vector-effect="non-scaling-stroke"  transform=" translate(-125.52, -239.5)" d="M 102.982 237.374 C 103.014 237.337 103.047 237.302 103.082 237.267 C 104.467 235.77599999999998 107.268 234.267 109.29799999999999 234.406 C 109.83412124801345 234.53047053268185 110.39764472188112 234.44115331753667 110.86899999999999 234.157 C 111.10317085879046 233.90272205999517 111.26870883497985 233.59298364300878 111.34999999999998 233.257 C 112.44921550864976 230.11813128675539 115.06533333453437 227.75095272983071 118.29812377291539 226.9700317895593 C 121.5309142112964 226.18911084928789 124.93914001862696 227.101033897314 127.34999999999998 229.392 C 127.63201591473575 229.7335906019963 128.0138602360223 229.97836260282102 128.44199999999998 230.09199999999998 C 129.00519926419003 230.06519378062723 129.53789996526726 229.82827933620976 129.93499999999997 229.428 C 133.13039089238848 227.31114583913694 137.43594243479524 228.17672712533627 139.56499999999997 231.364 C 139.84871335377505 232.3675791488308 140.86161859102876 232.97960648251885 141.88199999999998 232.764 C 144.87099999999998 232.811 147.53599999999997 235.83100000000002 148.70399999999998 238.583 C 150.11999999999998 241.921 150.68699999999998 242.902 149.48399999999998 247.593 C 144.86899999999997 251.346 134.66899999999998 252.185 125.94999999999999 252.29299999999998 C 118.15899999999999 252.39299999999997 106.71399999999998 249.93899999999996 101.32999999999998 247.04299999999998 L 101.02199999999998 244.837 C 100.58382967554466 242.1837772123128 101.29666962734044 239.46952998769453 102.982 237.374 Z" stroke-linecap="round" />
</g>
		<g transform="matrix(1 0 0 1 0.42 82.58)" id="SVGRepo_iconCarrier"  >
<path style="stroke: none; stroke-width: 1; stroke-dasharray: none; stroke-linecap: butt; stroke-dashoffset: 0; stroke-linejoin: miter; stroke-miterlimit: 4; fill: rgb(34,34,34); fill-rule: nonzero; opacity: 1;" vector-effect="non-scaling-stroke"  transform=" translate(-125.18, -248.86)" d="M 97.367 247.149 C 99.577 249.349 102.843 250.479 105.739 251.421 C 113.69410150131189 253.9451854512477 122.03981564260658 255.01130935636866 130.37400000000002 254.56799999999998 C 134.79537086426535 254.4561492805077 139.19351297086348 253.88983612544857 143.499 252.878 C 147.253 251.91299999999998 151.399 250.22 153.382 246.66299999999998 C 154.889 243.963 150.744 241.54 149.237 244.24099999999999 C 148.6703286386731 245.19234292720606 147.85144199555384 245.96831243433766 146.87099999999998 246.48299999999998 C 145.51281702044187 247.2326074070188 144.06066425134216 247.79759505224519 142.55299999999997 248.16299999999998 C 138.8186129648615 249.0844304860024 134.99750260672877 249.60966556768608 131.15299999999996 249.73 C 123.61212029658286 250.19358100052588 116.04705414079994 249.38220508892562 108.77599999999997 247.32999999999998 C 107.0767746035433 246.8640252736408 105.4115293842881 246.2819913306347 103.79199999999997 245.588 C 103.14682640165148 245.30007593331433 102.51878486162141 244.97520383419192 101.91099999999997 244.61499999999998 C 101.63699999999997 244.45 101.36799999999997 244.27599999999998 101.11099999999998 244.088 C 101.54099999999998 244.397 100.86399999999998 243.85399999999998 100.76199999999997 243.753 C 98.56899999999997 241.571 95.17399999999998 244.964 97.36799999999997 247.147 Z" stroke-linecap="round" />
</g>
		<g transform="matrix(1 0 0 1 0.34 93.49)" id="SVGRepo_iconCarrier"  >
<path style="stroke: none; stroke-width: 1; stroke-dasharray: none; stroke-linecap: butt; stroke-dashoffset: 0; stroke-linejoin: miter; stroke-miterlimit: 4; fill: rgb(34,34,34); fill-rule: nonzero; opacity: 1;" vector-effect="non-scaling-stroke"  transform=" translate(-125.1, -259.77)" d="M 96.664 245.452 C 95.98227925101065 251.24931529334222 97.02582691119947 257.1189230326842 99.66400000000002 262.326 C 102.494 267.867 107.59100000000001 271.726 113.23400000000001 274.12600000000003 C 119.1107056462364 276.5201090758394 125.5679092031407 277.10712758101255 131.77999999999997 275.812 C 138.17048604703925 274.4440232902105 143.8905655642336 270.9064708702865 147.969 265.8 C 152.51999999999998 260.13300000000004 153.978 252.58100000000002 153.70999999999998 245.45100000000002 C 153.59399999999997 242.372 148.79299999999998 242.35700000000003 148.90999999999997 245.45100000000002 C 149.10999999999996 250.75100000000003 148.37199999999996 256.485 145.50999999999996 261.058 C 142.4774325172728 265.6474120991485 137.94474873121717 269.0408273955794 132.68699999999995 270.658 C 127.50321199682509 272.187194713894 121.97631721316895 272.09893463813404 116.84399999999995 270.40500000000003 C 112.09899999999995 268.805 107.32899999999995 265.769 104.67399999999995 261.442 C 101.84428095395431 256.62197700512166 100.71459994426375 250.99153134927928 101.46599999999995 245.453 C 101.45889388486034 244.13047123285835 100.38852876714158 243.0601061151396 99.06599999999995 243.053 C 97.75341056802141 243.0836236523914 96.69662365239135 244.14041056802148 96.66599999999994 245.453 Z" stroke-linecap="round" />
</g>
		<g transform="matrix(1 0 0 1 0.74 69.8)" id="SVGRepo_iconCarrier"  >
<path style="stroke: none; stroke-width: 1; stroke-dasharray: none; stroke-linecap: butt; stroke-dashoffset: 0; stroke-linejoin: miter; stroke-miterlimit: 4; fill: rgb(34,34,34); fill-rule: nonzero; opacity: 1;" vector-effect="non-scaling-stroke"  transform=" translate(-125.5, -236.08)" d="M 103.333 244.2 C 103.02880641586553 242.16793052878774 103.686599312362 240.10992567452436 105.113 238.631 C 105.74810001965899 238.05032002294317 106.47623100113535 237.58044905532378 107.267 237.241 C 108.18377943296794 236.91319409082155 109.15687078104152 236.77209244531124 110.12899999999999 236.82600000000002 C 111.48167501005088 236.79670679668033 112.7049706804798 236.01512463701806 113.3 234.8 C 113.69911857460374 233.76082332395754 114.21937703053241 232.7723322576931 114.85 231.85500000000002 C 116.07403508102306 230.34195900271115 117.8419378901102 229.36844582134174 119.77499999999999 229.14300000000003 C 121.79108343368134 228.95092045348477 123.8015646995828 229.56179054321356 125.36999999999999 230.84300000000002 C 126.41799999999999 231.717 127.28699999999999 232.555 128.762 232.49400000000003 C 130.082 232.43900000000002 130.832 231.52000000000004 131.94 231.02000000000004 C 133.35353791500555 230.4302598000992 134.96615483322552 230.56918835349845 136.258 231.39200000000005 C 136.83332069751833 231.76816779754637 137.31274236140192 232.27361520889792 137.65800000000002 232.86800000000005 C 138.37422676348896 234.1884463363232 139.71461290098594 235.05225073604348 141.21300000000002 235.15900000000005 C 142.18360520514958 235.14309799886354 143.13185302048555 235.4509706661804 143.90800000000002 236.03400000000005 C 144.75660685844707 236.72156147155667 145.4633944502244 237.56760082336706 145.989 238.52500000000006 C 147.2382664314108 240.36794627958767 147.82203221648209 242.581670791435 147.644 244.80100000000007 C 147.334009685358 246.07364183529285 148.0684272142396 247.3676364431612 149.32 247.75400000000008 C 150.59715756183914 248.09542437341423 151.9119603895932 247.34875172114752 152.273 246.07700000000008 C 152.53516389165284 244.70314918015308 152.57265108788624 243.29585957020197 152.384 241.91000000000008 C 152.11180172692926 240.61320954780413 151.68299060869532 239.35431144110171 151.107 238.1610000000001 C 150.10222355726918 235.54188452717221 148.33379859982418 233.28501753065353 146.031 231.68300000000008 C 144.88965995754856 230.94223185794075 143.58143513561438 230.49813662148807 142.225 230.39100000000008 C 142.195 230.39100000000008 141.525 230.32300000000006 141.525 230.39800000000008 C 141.525 230.2090000000001 142.19 231.3890000000001 141.803 230.44500000000008 C 141.4721096711884 229.79005289590606 141.0325443605344 229.19596347219903 140.503 228.68800000000007 C 138.71576279874242 226.8873672460854 136.28402460011483 225.87414299665724 133.74699999999999 225.87300000000008 C 132.59435181246994 225.8638894674776 131.45088652544072 226.07852269034734 130.38 226.50500000000008 C 129.79792422608176 226.73113492335537 129.24229483461545 227.0201829230198 128.72299999999998 227.36700000000008 C 128.261 227.6790000000001 127.82299999999998 227.71200000000007 128.72299999999998 227.84800000000007 C 129.838 228.01400000000007 128.86999999999998 227.53100000000006 128.47899999999998 227.20800000000008 C 126.24370651139937 225.35092750581165 123.43205049345109 224.3292142036778 120.52599999999998 224.3180000000001 C 117.67728034507552 224.34359942403182 114.92733977459062 225.36531927062393 112.75299999999999 227.2060000000001 C 111.76379124892377 228.0353010326124 110.90987710646942 229.01370917687063 110.22199999999998 230.1060000000001 C 109.86072821525424 230.6930387740567 109.55186794839781 231.31075930776956 109.29899999999998 231.9520000000001 C 109.18534210398904 232.16528305510505 109.0961110696293 232.39070882611912 109.03299999999997 232.6240000000001 Q 110.65699999999997 231.9700000000001 109.62799999999997 232.0350000000001 C 109.41399999999997 232.0160000000001 109.19999999999997 232.0050000000001 108.98499999999997 232.0040000000001 C 105.98186449426785 232.17820725959967 103.17321059796798 233.5465258244637 101.18499999999997 235.80400000000012 C 98.97576971130778 238.50932820869062 98.06874194797375 242.04966238170408 98.70499999999997 245.48400000000012 C 99.06556470855232 246.755570630149 100.38031692904319 247.50202209408624 101.65699999999997 247.1600000000001 C 102.91487688777605 246.7821238026144 103.65313899980563 245.48179578667683 103.33299999999997 244.2080000000001 Z" stroke-linecap="round" />
</g>
		<g transform="matrix(1 0 0 1 -3.98 73.4)" id="SVGRepo_iconCarrier"  >
<path style="stroke: none; stroke-width: 1; stroke-dasharray: none; stroke-linecap: butt; stroke-dashoffset: 0; stroke-linejoin: miter; stroke-miterlimit: 4; fill: rgb(34,34,34); fill-rule: nonzero; opacity: 1;" vector-effect="non-scaling-stroke"  transform=" translate(-120.78, -239.67)" d="M 119.72 240.745 C 119.7120019531236 240.67121611065485 119.7120019531236 240.59678388934515 119.72 240.523 L 119.635 241.161 C 119.64773611410342 241.0889103274547 119.66749696795492 241.01824015520617 119.694 240.95 L 119.452 241.524 C 119.49176963852507 241.43588590189046 119.54106308543354 241.3523888387598 119.599 241.275 L 119.224 241.76000000000002 C 119.33328072733089 241.62507666781846 119.45814962161171 241.50356446424414 119.596 241.39800000000002 L 119.11 241.77300000000002 C 119.41597189122653 241.55248345753427 119.74651970756284 241.36824919238845 120.095 241.22400000000002 L 119.522 241.46500000000003 C 120.0833983720807 241.21987947250872 120.67334210129589 241.0461887504106 121.278 240.94800000000004 L 120.64 241.03400000000005 C 121.14661244280825 240.97232006271844 121.65897513510696 240.97467189147 122.165 241.04100000000005 L 121.527 240.95500000000004 C 121.9539471860848 241.00814296923517 122.37234268536086 241.1156823746716 122.772 241.27500000000003 L 122.19900000000001 241.03300000000004 C 122.40406963167237 241.12215712325843 122.59804569583008 241.23491829550238 122.77700000000002 241.36900000000006 L 122.29100000000001 240.99400000000006 C 122.5138544370537 241.22831733981994 122.76592258327602 241.43299667455247 123.04100000000001 241.60300000000007 C 123.88855336981418 242.07349867852744 124.93386279952044 241.99978593554744 125.70700000000001 241.41500000000008 C 126.47727097617181 240.82513021724262 126.8166386072991 239.8295202947611 126.56700000000001 238.89200000000008 C 126.44561570189262 238.4783673578858 126.22486313243787 238.10071910531937 125.924 237.7920000000001 L 126.299 238.27800000000008 L 126.28200000000001 238.24800000000008 C 125.61318316795492 237.10338985597576 124.14311014402433 236.717683167955 122.9985 237.38650000000007 C 121.8538898559757 238.05531683204518 121.46818316795492 239.52538985597576 122.13700000000001 240.67000000000007 C 122.26317325348296 240.86061264152949 122.40180883034384 241.04267623041906 122.55200000000002 241.21500000000006 L 121.93500000000002 240.15600000000006 L 121.93500000000002 240.16800000000006 L 125.46100000000001 237.45800000000006 L 125.42200000000001 237.43900000000005 L 125.90800000000002 237.81400000000005 C 124.88907945347415 236.8563197365257 123.55918133142896 236.297876131086 122.16200000000002 236.24100000000004 C 121.25800122374508 236.1389979439863 120.34297213096765 236.20304998048073 119.46200000000002 236.43000000000004 C 118.57971661989087 236.63880777803456 117.73459559948022 236.98144263706777 116.95600000000002 237.44600000000003 C 115.71564407850703 238.0807557749657 114.93128005232377 239.35269743904666 114.92100000000002 240.74600000000004 C 114.93951430548323 241.3790054564057 115.18842051683853 241.98349196969718 115.62100000000002 242.44600000000003 C 116.55824542509573 243.38318326956082 118.07775457490432 243.38318326956082 119.01500000000003 242.44600000000003 C 119.47188264386428 241.99950318775458 119.72501654796748 241.38474942064678 119.71500000000003 240.74600000000004 Z" stroke-linecap="round" />
</g>
		<g transform="matrix(1 0 0 1 28.19 119.18)" id="SVGRepo_iconCarrier"  >
<path style="stroke: none; stroke-width: 1; stroke-dasharray: none; stroke-linecap: butt; stroke-dashoffset: 0; stroke-linejoin: miter; stroke-miterlimit: 4; fill: rgb(255,255,255); fill-rule: nonzero; opacity: 1;" vector-effect="non-scaling-stroke"  transform=" translate(-152.95, -285.45)" d="M 155.113 286.812 L 155.113 286.822 C 155.09497908171164 286.8477959622235 155.0782905748835 286.87449757314846 155.063 286.902 L 150.79299999999998 284.002 C 151.70299999999997 284.572 152.82299999999998 285.29200000000003 154.04299999999998 286.10200000000003 C 154.343 286.302 154.653 286.51200000000006 154.97299999999998 286.72200000000004 C 155.023 286.752 155.063 286.782 155.113 286.812 Z" stroke-linecap="round" />
</g>
		<g transform="matrix(1 0 0 1 28.19 119.18)" id="SVGRepo_iconCarrier"  >
<path style="stroke: none; stroke-width: 1; stroke-dasharray: none; stroke-linecap: butt; stroke-dashoffset: 0; stroke-linejoin: miter; stroke-miterlimit: 4; fill: rgb(34,34,34); fill-rule: nonzero; opacity: 1;" vector-effect="non-scaling-stroke"  transform=" translate(-152.95, -285.45)" d="M 152.713 286.812 L 152.713 286.822 L 153.04 285.611 C 153.0219257075912 285.63656045275104 153.0055568519743 285.6632851149828 152.99099999999999 285.691 L 156.27399999999997 284.83 L 152.54299999999998 282.296 L 152 281.93 L 149.577 286.074 C 151.033 286.987 152.446 287.96500000000003 153.897 288.884 C 154.44662151944968 289.2054779289369 155.10146590607837 289.29536987332347 155.71738436252812 289.1338882073663 C 156.33330281897784 288.97240654140916 156.85980727820612 288.57278824005465 157.18099999999998 288.023 C 157.50520963177442 287.46366698006403 157.5923423415649 286.7979298709626 157.42299999999997 286.17400000000004 C 157.2413050144825 285.57896589281825 156.85063230957505 285.0696707484207 156.32299999999998 284.74 C 154.87199999999999 283.821 153.45899999999997 282.84000000000003 152.003 281.93 C 151.4533784805503 281.60852207106313 150.7985340939216 281.51863012667656 150.18261563747186 281.68011179263374 C 149.56669718102214 281.84159345859086 149.04019272179386 282.2412117599454 148.719 282.791 C 148.3951284274091 283.3504726224428 148.30835673922513 284.01620229651814 148.47799999999998 284.64 C 148.66576247056958 285.2318902725602 149.05497631907497 285.7392835987027 149.57799999999997 286.074 L 153.30999999999997 288.608 L 153.84899999999996 288.974 C 154.1153771440108 289.1473112113096 154.42348139426056 289.2457525917145 154.74099999999996 289.259 C 155.05808128371038 289.33077730570335 155.38863365344875 289.31592490037553 155.69799999999995 289.216 C 156.2960933258172 289.04028746307176 156.8073146973671 288.64813717806135 157.13199999999995 288.116 C 157.3696298407212 287.7232286204644 157.49997493395634 287.27495184478795 157.50999999999993 286.816 C 157.50338868590572 286.18051705422863 157.25277581571288 285.571885798046 156.80999999999995 285.116 C 155.87275457490423 284.17881673043917 154.35324542509565 284.17881673043917 153.41599999999994 285.116 C 152.97454019528465 285.57137955205474 152.72315791246697 286.1778437791654 152.713 286.812 Z" stroke-linecap="round" />
</g>
		<g transform="matrix(1 0 0 1 29.64 84.94)" id="SVGRepo_iconCarrier"  >
<path style="stroke: none; stroke-width: 1; stroke-dasharray: none; stroke-linecap: butt; stroke-dashoffset: 0; stroke-linejoin: miter; stroke-miterlimit: 4; fill: rgb(255,255,255); fill-rule: nonzero; opacity: 1;" vector-effect="non-scaling-stroke"  transform=" translate(-154.41, -251.22)" d="M 162.653 253.777 C 160.176 252.356 157.935 249.577 156.416 247.154 C 154.897 244.731 152.984 242.254 150.216 241.554 C 149.2388649072582 241.23684708969978 148.1697631184677 241.3928501861277 147.324 241.976 C 146.925667705634 242.3283367844367 146.6261392736812 242.77849113671562 146.455 243.282 C 145.30900000000003 246.33200000000002 147.83200000000002 250.893 148.615 254.056 C 149.05100000000002 255.818 150.229 259.41700000000003 150.499 261.04 Z" stroke-linecap="round" />
</g>
		<g transform="matrix(1 0 0 1 29.63 84.94)" id="SVGRepo_iconCarrier"  >
<path style="stroke: none; stroke-width: 1; stroke-dasharray: none; stroke-linecap: butt; stroke-dashoffset: 0; stroke-linejoin: miter; stroke-miterlimit: 4; fill: rgb(34,34,34); fill-rule: nonzero; opacity: 1;" vector-effect="non-scaling-stroke"  transform=" translate(-154.39, -251.22)" d="M 163.864 251.7 C 158.516 248.522 157.19400000000002 240.55399999999997 150.583 239.176 C 148.74260463910178 238.69695138069264 146.78516510055334 239.19698031162804 145.4 240.5 C 144.26054047122324 241.8007743343658 143.6742136441049 243.49516556915944 143.76600000000002 245.222 C 143.82700000000003 248.211 145.15500000000003 250.937 146.03000000000003 253.735 C 146.91394097172218 256.33653182278067 147.63467493618523 258.99068975400763 148.18800000000002 261.682 C 148.54947927096325 262.95285263596975 149.86346478938 263.698868804285 151.14000000000001 263.358 C 152.39925227048087 262.9818501034949 153.13832622538263 261.68009215906176 152.816 260.406 C 152.436 258.26800000000003 151.684 256.2 151.116 254.106 C 150.48600000000002 251.79999999999998 149.55200000000002 249.595 148.93 247.29 C 148.85500000000002 247.01399999999998 148.786 246.736 148.73000000000002 246.457 C 148.70000000000002 246.32 148.674 246.183 148.64800000000002 246.046 C 148.56700000000004 245.602 148.66700000000003 246.31099999999998 148.61700000000002 245.875 C 148.5873368802221 245.6147244707707 148.57264602616036 245.35296016203435 148.573 245.091 C 148.573 244.958 148.654 244.26600000000002 148.585 244.614 C 148.612 244.478 148.757 243.814 148.722 243.892 C 148.749 243.82999999999998 148.922 243.819 148.981 243.815 C 149.2342258604385 243.7763547441121 149.49320993128765 243.80890087066265 149.72899999999998 243.909 C 151.85199999999998 244.49599999999998 153.291 246.721 154.51299999999998 248.617 C 156.24074914617995 251.52760704632513 158.61456183639578 254.0020108191186 161.45099999999996 255.849 C 164.11299999999997 257.431 166.52999999999997 253.283 163.87399999999997 251.70399999999998 Z" stroke-linecap="round" />
</g>
		<g transform="matrix(1 0 0 1 0.6 110.15)" id="SVGRepo_iconCarrier"  >
<path style="stroke: none; stroke-width: 1; stroke-dasharray: none; stroke-linecap: butt; stroke-dashoffset: 0; stroke-linejoin: miter; stroke-miterlimit: 4; fill: rgb(34,34,34); fill-rule: nonzero; opacity: 1;" vector-effect="non-scaling-stroke"  transform=" translate(-125.36, -276.42)" d="M 142.233 266.562 C 138.62302792163908 268.0678516596003 134.86706833682348 269.19651617438075 131.025 269.93 C 128.20414911444115 270.48939802536995 125.34006835731329 270.80290779983596 122.465 270.867 C 119.20482652631213 270.7099473872866 115.95507246032699 270.3828357413678 112.72899999999998 269.887 C 109.65 269.565 105.951 268.818 102.95 269.841 C 101.19650496018943 270.5091022025071 99.7843070408476 271.8526953808049 99.02978085573838 273.5707744370825 C 98.27525467062917 275.2888534933601 98.24147157726775 277.2378030295884 98.936 278.981 C 100.11200000000001 282.088 103.08900000000001 283.247 106.08300000000001 283.993 C 111.683 285.388 117.537 285.628 123.269 286.093 C 132.169 286.817 141.06400000000002 285.841 149.969 285.999 C 153.059 286.053 153.059 281.25300000000004 149.969 281.199 C 142.382 281.064 134.802 281.80600000000004 127.21499999999999 281.546 C 121.98989182207912 281.3890873990357 116.77804142619891 280.9333426334767 111.60499999999998 280.1809999999999 C 110.22599999999998 279.97299999999996 108.85 279.728 107.49499999999999 279.397 C 106.916 279.256 106.341 279.097 105.77499999999999 278.917 Q 105.35799999999999 278.782 104.94999999999999 278.62699999999995 C 104.68399999999998 278.52699999999993 104.93399999999998 278.62699999999995 104.98199999999999 278.64799999999997 C 104.84699999999998 278.59 104.71199999999999 278.52899999999994 104.58199999999998 278.462 C 102.87599999999998 277.594 102.68999999999998 274.72499999999997 104.83099999999997 274.298 C 106.17130486694401 274.12901119847106 107.52807661223596 274.1380899685139 108.86599999999997 274.325 C 110.33399999999997 274.433 111.79899999999998 274.58799999999997 113.26599999999998 274.743 C 116.25999999999998 275.06 119.32599999999998 275.614 122.33999999999997 275.658 C 125.52026885810503 275.6024411193367 128.6892085492368 275.26275648669343 131.80899999999997 274.64300000000003 C 135.82248669229514 273.9188797250363 139.74547914414327 272.7610940039908 143.50899999999996 271.19000000000005 C 144.76057278576033 270.80363644316117 145.4949903146419 269.5096418352929 145.18499999999995 268.2370000000001 C 144.82535285744834 266.96470962194905 143.5098308979773 266.2178211381843 142.23299999999995 266.5610000000001 Z" stroke-linecap="round" />
</g>
		<g transform="matrix(1 0 0 1 41.98 93.85)" id="SVGRepo_iconCarrier"  >
<path style="stroke: none; stroke-width: 1; stroke-dasharray: none; stroke-linecap: butt; stroke-dashoffset: 0; stroke-linejoin: miter; stroke-miterlimit: 4; fill: rgb(34,34,34); fill-rule: nonzero; opacity: 1;" vector-effect="non-scaling-stroke"  transform=" translate(-166.75, -260.13)" d="M 162.3 256.524 C 162.42000000000002 256.609 162.538 256.697 162.657 256.783 C 162.929 256.978 162.221 256.415 162.657 256.79 C 162.857 256.963 163.05700000000002 257.13300000000004 163.257 257.314 C 163.6459077412877 257.67577665554325 164.01320817982992 258.06010647805425 164.357 258.46500000000003 C 164.45952714852302 258.57079545416565 164.55317636536557 258.6848468218203 164.637 258.80600000000004 C 164.491 258.55600000000004 164.464 258.576 164.637 258.814 C 164.792 259.029 164.937 259.24800000000005 165.085 259.47200000000004 C 165.3865098260306 259.9446828149719 165.65901220719806 260.4352538908726 165.901 260.94100000000003 C 165.952 261.047 166.001 261.156 166.05 261.26200000000006 C 166.181 261.52900000000005 165.888 260.8330000000001 166.05 261.26200000000006 C 166.143 261.5110000000001 166.23700000000002 261.76200000000006 166.32000000000002 262.0110000000001 C 166.49471055774922 262.54419107969426 166.63532780424018 263.0879556338209 166.741 263.63900000000007 C 166.841 264.17500000000007 166.9 264.72300000000007 167.05 265.25000000000006 C 167.29855303842524 266.07840028828116 167.71789262005095 266.84554304849325 168.281 267.50200000000007 C 169.21983532088188 268.43533684827463 170.73616467911813 268.43533684827463 171.675 267.50200000000007 C 172.5758489057453 266.54999682672474 172.5758489057453 265.0600031732754 171.675 264.10800000000006 C 171.829 264.29800000000006 171.96300000000002 264.42600000000004 171.745 264.15400000000005 C 171.572 263.9390000000001 171.875 264.63900000000007 171.732 264.14700000000005 C 171.65435367933097 263.8837942320936 171.59026936081375 263.61677623827177 171.54 263.34700000000004 C 171.44 262.785 171.356 262.22200000000004 171.218 261.66700000000003 C 170.25317143421807 257.88641232869554 167.94697170582168 254.58544406280774 164.72899999999998 252.37900000000002 C 163.5838615497188 251.71609808216363 162.11842057586261 252.1004248194436 161.446 253.24 C 160.81233544104796 254.38892992521016 161.19103836772956 255.83292726353264 162.307 256.523 Z" stroke-linecap="round" />
</g>
		<g transform="matrix(1 0 0 1 -36.46 32.4)" id="SVGRepo_iconCarrier"  >
<path style="stroke: none; stroke-width: 1; stroke-dasharray: none; stroke-linecap: butt; stroke-dashoffset: 0; stroke-linejoin: miter; stroke-miterlimit: 4; fill: rgb(34,34,34); fill-rule: nonzero; opacity: 1;" vector-effect="non-scaling-stroke"  transform=" translate(-88.31, -198.68)" d="M 44.286 201.436 C 54.510000000000005 201.30700000000002 64.729 200.936 74.952 200.751 C 79.199 200.67600000000002 83.452 200.58 87.705 200.713 C 94.44 200.924 101.162 201.35999999999999 107.905 201.477 C 116.046 201.619 124.188 201.584 132.33 201.528 C 135.417 201.506 135.424 196.706 132.33 196.72799999999998 C 117.76800000000001 196.82799999999997 103.251 196.664 88.70500000000001 195.95199999999997 C 79.41300000000001 195.49799999999996 70.02200000000002 196.03999999999996 60.73000000000001 196.27299999999997 C 55.250000000000014 196.41099999999997 49.77000000000001 196.56699999999998 44.28800000000001 196.63599999999997 C 41.20200000000001 196.67499999999995 41.19400000000001 201.47499999999997 44.28800000000001 201.43599999999998 Z" stroke-linecap="round" />
</g>
		<g transform="matrix(1 0 0 1 -36.73 45.34)" id="SVGRepo_iconCarrier"  >
<path style="stroke: none; stroke-width: 1; stroke-dasharray: none; stroke-linecap: butt; stroke-dashoffset: 0; stroke-linejoin: miter; stroke-miterlimit: 4; fill: rgb(34,34,34); fill-rule: nonzero; opacity: 1;" vector-effect="non-scaling-stroke"  transform=" translate(-88.03, -211.61)" d="M 41.542 216.839 C 45.372 216.38 49.254000000000005 216.239 53.102000000000004 216.002 C 60.054 215.58200000000002 67.009 215.202 73.96300000000001 214.828 C 89.292 213.997 104.62400000000001 213.218 119.947 212.276 C 124.799 211.976 129.69400000000002 211.78300000000002 134.522 211.18900000000002 C 135.8307336338816 211.14940917659985 136.88240917659982 210.09773363388163 136.922 208.78900000000002 C 136.9138135260426 207.46692239605895 135.84407760394106 206.39718647395742 134.522 206.389 C 130.422 206.889 126.267 207.079 122.14599999999999 207.339 C 115.05499999999999 207.787 107.96099999999998 208.182 100.86599999999999 208.572 C 85.65399999999998 209.409 70.43799999999999 210.172 55.22999999999998 211.072 C 50.67599999999998 211.341 46.07499999999998 211.493 41.54199999999998 212.036 C 40.233053891403664 212.07509890305772 39.18109890305769 213.12705389140368 39.14199999999998 214.436 C 39.150186473957376 215.75807760394108 40.219922396058905 216.8278135260426 41.54199999999998 216.836 Z" stroke-linecap="round" />
</g>
		<g transform="matrix(1 0 0 1 -44.94 52.26)" id="SVGRepo_iconCarrier"  >
<path style="stroke: none; stroke-width: 1; stroke-dasharray: none; stroke-linecap: butt; stroke-dashoffset: 0; stroke-linejoin: miter; stroke-miterlimit: 4; fill: rgb(255,255,255); fill-rule: nonzero; opacity: 1;" vector-effect="non-scaling-stroke"  transform=" translate(-79.83, -218.53)" d="M 104.493 210.772 C 103.005 210.85399999999998 103.366 210.751 101.143 210.402 C 104.97 211.68099999999998 104.794 216.886 101.733 218.922 C 103.80000000000001 220.006 103.851 223.055 102.253 224.542 C 100.893 225.882 95.503 226.092 93.923 226.662 C 84.084 230.223 91.286 239.54000000000002 72.143 247.512 C 65.673 245.202 57.743 242.402 51.373000000000005 240.192 C 53.82600000000001 229.443 55.68300000000001 224.792 60.593 213.162 C 64.744 203.768 65.503 197.608 72.253 191.80200000000002 C 77.503 188.30800000000002 109.343 187.65600000000003 102.513 198.95200000000003 L 102.503 198.95200000000003 C 102.34560056700464 199.12844304630275 102.17145117019595 199.2891963356646 101.983 199.43200000000002 C 101.09211340294812 200.12956335275527 99.9838287126035 200.49072960967268 98.85300000000001 200.45200000000003 C 101.97900000000001 201.43800000000002 106.043 202.06300000000002 107.893 205.07200000000003 C 109.123 207.492 107.273 210.432 104.493 210.772 Z" stroke-linecap="round" />
</g>
		<g transform="matrix(1 0 0 1 -47.25 48.53)" id="SVGRepo_iconCarrier"  >
<path style="stroke: none; stroke-width: 1; stroke-dasharray: none; stroke-linecap: butt; stroke-dashoffset: 0; stroke-linejoin: miter; stroke-miterlimit: 4; fill: rgb(34,34,34); fill-rule: nonzero; opacity: 1;" vector-effect="non-scaling-stroke"  transform=" translate(-77.51, -214.81)" d="M 99.083 202.862 C 99.97123201497891 202.8060087073544 100.84682790882621 202.62280710494943 101.68299999999999 202.31799999999998 C 101.33 202.46499999999997 102.27099999999999 202.07199999999997 102.18299999999999 202.111 C 102.04799999999999 202.171 101.583 202.397 102.18299999999999 202.095 C 102.54098585955568 201.92368307475562 102.88416004263222 201.7229964179857 103.20899999999999 201.495 C 104.69331155506198 200.4631200116015 105.69992631626324 198.87733234626475 106.002 197.095 C 106.631 193.07 103.31899999999999 190.519 99.964 189.263 C 97.13731462077473 188.33427585573008 94.21060954397991 187.74349698944278 91.24499999999999 187.50300000000001 C 87.82921107470031 187.06706381974666 84.37743985172898 186.98629907559754 80.94499999999996 187.262 C 77.688 187.55 73.724 188.046 70.89500000000001 189.831 C 69.38914835266797 190.91522023885346 68.08306909932226 192.25276720477976 67.03500000000001 193.784 C 65.80553307199773 195.393995524958 64.73392301251054 197.11861796444518 63.83500000000001 198.934 C 62.44100000000001 201.74699999999999 61.41000000000001 204.775 60.23500000000001 207.684 Q 58 213.234 55.727 218.774 C 54.5 221.784 53.132 224.781 52.089999999999996 227.861 C 50.799 231.678 50.224 235.7 49.059 239.554 C 48.159 242.517 52.794 243.784 53.687 240.83 C 54.599 237.81500000000003 55.181 234.715 55.977 231.67000000000002 C 56.63953916321883 229.34105984937253 57.45258241080694 227.05759081054248 58.41099999999999 224.83400000000003 C 60.88699999999999 218.716 63.40599999999999 212.616 65.869 206.494 C 66.76073872949873 204.0373211193455 67.83403495033531 201.65039856780578 69.07999999999998 199.353 C 69.84620739863499 198.0027504881107 70.7417447505714 196.7301095242519 71.754 195.553 C 72.5701572177665 194.5046732276326 73.67733009249243 193.72029533491914 74.93700000000001 193.298 C 80.36600000000001 191.46 86.47800000000001 191.62 92.08900000000001 192.415 C 94.63200000000002 192.77599999999998 97.49700000000001 193.12199999999999 99.76500000000001 194.403 C 100.59400000000001 194.87099999999998 101.66000000000001 195.612 101.19600000000001 196.709 C 101.10601284330491 196.88201235780852 100.99880352316394 197.0455065710235 100.87600000000002 197.197 C 100.77600000000002 197.297 100.67600000000002 197.397 100.57600000000002 197.50300000000001 Q 101.05100000000002 197.16400000000002 100.42300000000002 197.615 C 100.92300000000002 197.293 99.80400000000002 197.943 100.06900000000002 197.83 C 99.31400000000002 198.15300000000002 99.79600000000002 198.014 99.08700000000002 198.06400000000002 C 97.774194397006 198.09411837916716 96.71711837916713 199.151194397006 96.68700000000001 200.46400000000003 C 96.69787259708032 201.7849536115824 97.76604638841764 202.85312740291974 99.08700000000002 202.86400000000003 Z" stroke-linecap="round" />
</g>
		<g transform="matrix(1 0 0 1 -32.4 38.81)" id="SVGRepo_iconCarrier"  >
<path style="stroke: none; stroke-width: 1; stroke-dasharray: none; stroke-linecap: butt; stroke-dashoffset: 0; stroke-linejoin: miter; stroke-miterlimit: 4; fill: rgb(34,34,34); fill-rule: nonzero; opacity: 1;" vector-effect="non-scaling-stroke"  transform=" translate(-92.37, -205.08)" d="M 77.659 205.036 C 80.53197887471285 203.42409708774662 83.68114116834394 202.36386215722527 86.94399999999999 201.91 C 90.392 201.401 94.057 202.035 97.47800000000001 202.66899999999998 C 99.95800000000001 203.129 103.13900000000001 203.79999999999998 105.12200000000001 205.439 C 105.82200000000002 206.017 106.03900000000002 206.623 105.76900000000002 207.239 C 105.27988351515268 208.18671140506697 104.18731756527157 208.6543547962829 103.16400000000002 208.354 C 101.84101916996418 208.3600223525577 100.77002235255769 209.4310191699642 100.76400000000001 210.75400000000002 C 100.7961349336125 212.06594216716175 101.85205783283828 213.12186506638753 103.16400000000002 213.15400000000002 C 106.51443966323171 213.5385537349515 109.63901172062732 211.40467887023613 110.50000000000001 208.14400000000003 C 111.30000000000001 204.78600000000003 109.15400000000001 202.02900000000002 106.31300000000002 200.53700000000003 C 103.49741355429181 199.14250638447743 100.4711539683915 198.22182341344043 97.35600000000002 197.81200000000004 C 95.50900000000003 197.53300000000004 93.65600000000002 197.33200000000005 91.79900000000002 197.10500000000005 C 89.90450960728734 196.88490715699973 87.988850197752 196.92427002157922 86.10500000000002 197.22200000000004 C 82.28290708015992 197.75104573516967 78.59520996212223 198.99758168251262 75.236 200.89600000000007 C 72.55700000000002 202.43300000000005 74.97200000000002 206.58200000000005 77.65900000000002 205.04100000000005 Z" stroke-linecap="round" />
</g>
		<g transform="matrix(1 0 0 1 -30.79 47.48)" id="SVGRepo_iconCarrier"  >
<path style="stroke: none; stroke-width: 1; stroke-dasharray: none; stroke-linecap: butt; stroke-dashoffset: 0; stroke-linejoin: miter; stroke-miterlimit: 4; fill: rgb(34,34,34); fill-rule: nonzero; opacity: 1;" vector-effect="non-scaling-stroke"  transform=" translate(-93.98, -213.75)" d="M 85.643 213.579 C 85.943 213.28900000000002 85.194 213.80700000000002 85.606 213.596 C 85.768 213.514 85.91999999999999 213.405 86.08 213.318 C 86.265 213.21800000000002 86.455 213.125 86.646 213.036 C 86.784 212.971 86.923 212.909 87.063 212.848 C 86.892 212.92000000000002 86.886 212.923 87.044 212.859 C 87.944 212.494 88.87299999999999 212.17600000000002 89.803 211.882 C 91.73356731765587 211.18396656092372 93.80699374484415 210.97507786701644 95.838 211.274 C 96.92006248818477 211.5031402052688 97.98573490781615 211.80380013557232 99.02799999999999 212.174 C 99.43172229383357 212.29622987576835 99.82719894080812 212.4441996009455 100.21199999999999 212.61700000000002 C 100.57280311306134 212.779021511814 100.909352266694 212.99037438029532 101.21199999999999 213.245 C 101.4119735518394 213.42112797083735 101.5518386709765 213.65540204539198 101.612 213.915 C 101.741 214.363 101.657 213.878 101.666 214.315 C 101.666 214.315 101.601 215.096 101.657 214.744 C 101.55103608089625 215.69158385202007 101.03541069498624 216.545234384611 100.246 217.08 C 99.31755305722334 218.02084709462872 99.31755305722334 219.5331529053713 100.246 220.47400000000002 C 101.19516587735184 221.38194738878505 102.69083412264816 221.38194738878505 103.64 220.47400000000002 C 106.32810127234119 218.2535707263753 107.18375019928185 214.501279198875 105.724 211.335 C 104.27300000000001 208.59900000000002 101.057 207.743 98.304 206.941 C 95.26413059632715 206.0979150776515 92.04516144206119 206.15313908450608 89.036 207.1 C 86.787 207.781 83.97800000000001 208.509 82.249 210.189 C 80.03 212.346 83.426 215.738 85.643 213.583 Z" stroke-linecap="round" />
</g>
		<g transform="matrix(1 0 0 1 -37.01 66.31)" id="SVGRepo_iconCarrier"  >
<path style="stroke: none; stroke-width: 1; stroke-dasharray: none; stroke-linecap: butt; stroke-dashoffset: 0; stroke-linejoin: miter; stroke-miterlimit: 4; fill: rgb(34,34,34); fill-rule: nonzero; opacity: 1;" vector-effect="non-scaling-stroke"  transform=" translate(-87.75, -232.58)" d="M 72.781 249.826 C 75.63600000000001 249.226 77.83000000000001 247.418 80.055 245.644 C 82.037 244.065 84.44000000000001 242.935 86.19800000000001 241.08700000000002 C 87.998 239.19600000000003 88.581 236.77100000000002 89.555 234.43300000000002 C 89.93476486686849 233.51146691985744 90.3823247152736 232.6193554669872 90.894 231.764 C 91.22565579726691 231.20274562468998 91.63882993668352 230.69386067320622 92.12 230.25400000000002 C 94.84100000000001 228.08200000000002 98.59700000000001 228.63700000000003 101.72 227.51100000000002 C 106.259 225.87600000000003 107.293 219.49500000000003 103.002 216.89000000000001 C 100.51182664025605 215.59292696255986 97.69343899076412 215.06195664735927 94.902 215.364 C 91.981 215.608 89.642 216.83 87.16 218.27 C 84.488 219.81900000000002 86.902 223.97 89.582 222.41400000000002 C 91.06180511031093 221.38371877708227 92.72034936328315 220.6376960094399 94.473 220.21400000000003 C 96.44426242655426 219.89023964520848 98.46673361332816 220.12153749707718 100.314 220.88200000000003 C 100.91399999999999 221.16100000000003 100.83 221.12300000000005 101.03899999999999 221.65300000000002 C 100.98299999999999 221.51200000000003 100.99099999999999 221.64700000000002 100.98499999999999 221.72700000000003 C 100.96024230443047 222.10246798044287 100.84049651497739 222.46549041685952 100.63699999999999 222.78200000000004 C 100.51099999999998 222.99500000000003 100.72199999999998 222.74200000000005 100.75899999999999 222.69500000000005 C 100.65215553971262 222.7797249944333 100.53271057360222 222.8472080261341 100.40499999999999 222.89500000000004 C 100.74799999999999 222.74800000000005 99.99399999999999 223.03200000000004 99.83099999999999 223.07900000000004 C 99.02445106932274 223.2997729757389 98.2057324516997 223.47340008877478 97.37899999999999 223.59900000000005 C 94.16199999999999 224.13800000000003 91.112 224.66500000000005 88.60699999999999 226.98000000000005 C 87.40824513616062 228.1836855825647 86.45191199942941 229.60647300749918 85.78999999999999 231.17100000000005 C 84.907 233.05300000000005 84.428 235.19200000000004 83.34799999999998 236.97100000000006 C 82.21399999999998 238.83600000000007 79.84199999999998 239.80800000000005 78.14799999999998 241.08400000000006 C 76.06499999999998 242.65600000000006 74.13199999999998 244.64300000000006 71.49899999999998 245.19600000000005 C 68.47699999999998 245.83000000000004 69.75599999999999 250.45800000000006 72.77499999999998 249.82400000000007 Z" stroke-linecap="round" />
</g>
		<g transform="matrix(1 0 0 1 -2.5 82.85)" id="SVGRepo_iconCarrier"  >
<path style="stroke: none; stroke-width: 1; stroke-dasharray: none; stroke-linecap: butt; stroke-dashoffset: 0; stroke-linejoin: miter; stroke-miterlimit: 4; fill: rgb(34,34,34); fill-rule: nonzero; opacity: 1;" vector-effect="non-scaling-stroke"  transform=" translate(-122.27, -249.13)" d="M 28.657 267.8 C 30.667 262.507 32.903999999999996 257.3 35.197 252.12300000000002 Q 36.940000000000005 248.187 38.763000000000005 244.287 Q 39.563 242.58700000000002 40.388000000000005 240.899 Q 40.71600000000001 240.234 41.051 239.572 C 41.151 239.372 41.251000000000005 239.172 41.357 238.972 C 41.421 238.848 41.486 238.72400000000002 41.551 238.6 Q 41.785000000000004 238.166 41.451 238.749 L 40.239 239.076 C 41.180724252873745 239.22783126352127 42.09982395474904 239.49657386640877 42.974999999999994 239.876 C 44.40599999999999 240.347 45.833999999999996 240.83 47.25999999999999 241.315 Q 52.395999999999994 243.062 57.51199999999999 244.87 Q 62.73899999999999 246.705 67.95899999999999 248.56 Q 70.38499999999999 249.423 72.80899999999998 250.288 L 75.27299999999998 251.167 L 76.60599999999998 251.644 L 77.15199999999999 251.844 Q 78.02899999999998 252.233 76.89999999999999 251.434 L 76.89999999999999 250.158 C 76.383592191549 252.39247678220676 75.6763293204161 254.57850119090224 74.78599999999997 256.692 Q 73.58599999999998 260.175 72.314 263.63100000000003 C 70.43599999999999 268.75800000000004 68.46799999999999 273.85100000000006 66.45599999999999 278.93100000000004 C 62.55599999999999 288.759 58.990999999999985 298.831 53.57099999999999 307.93100000000004 C 51.44799999999999 311.497 48.97099999999999 315.45400000000006 45.41699999999999 317.766 C 41.636999999999986 320.22700000000003 36.97199999999999 321.05400000000003 32.52499999999999 321.077 C 28.20199999999999 321.099 23.807999999999993 320.477 20.26999999999999 317.812 C 17.818156971891977 315.9393145115281 15.899788404230083 313.45688214503537 14.705999999999987 310.612 C 14.96799999999999 311.21200000000005 14.67599999999999 310.512 14.623999999999988 310.368 C 14.438999999999988 309.858 14.278999999999987 309.339 14.117999999999988 308.82099999999997 Q 13.417999999999989 306.57599999999996 12.909999999999988 304.27799999999996 C 12.281218168456027 301.44207881679483 11.853818311656807 298.56523333815176 11.630999999999984 295.669 C 11.21891191050503 289.69202738541827 11.361185981730998 283.689735392284 12.055999999999957 277.73900000000003 C 12.130999999999988 277.039 12.213999999999988 276.33 12.297999999999988 275.626 C 12.314999999999987 275.481 12.333999999999987 275.337 12.352999999999987 275.19199999999995 C 12.291999999999987 275.66499999999996 12.352999999999987 275.16399999999993 12.372999999999987 275.04799999999994 Q 12.536999999999987 273.917 12.721999999999987 272.78999999999996 C 13.002999999999988 271.10499999999996 13.321999999999987 269.426 13.662999999999988 267.75199999999995 C 14.462999999999989 263.81699999999995 15.384999999999987 259.90599999999995 16.36299999999999 256.00999999999993 C 18.43399999999999 247.72499999999994 20.74799999999999 239.49899999999994 23.224999999999987 231.32599999999994 C 25.09799999999999 225.14599999999993 27.291999999999987 219.07999999999993 29.239999999999988 212.92599999999993 C 30.634736182553777 207.97885652660443 32.68633889286848 203.24099957903016 35.339999999999975 198.83899999999997 C 36.52802608154318 196.97611220123784 37.95744369187867 195.27869980486673 39.59099999999999 193.79099999999994 C 40.24499999999999 193.20099999999994 40.91299999999999 192.62599999999995 41.582999999999984 192.05599999999993 C 41.88299999999998 191.80299999999994 42.176999999999985 191.55599999999993 42.47699999999998 191.30299999999994 C 42.55399999999998 191.23899999999995 42.62999999999998 191.17199999999994 42.70899999999998 191.11099999999993 C 43.024999999999984 190.86499999999992 42.036999999999985 191.56499999999994 42.890999999999984 190.99499999999992 C 51.51099999999998 185.24099999999993 61.073999999999984 181.17599999999993 70.69999999999999 177.41999999999993 Q 74.56899999999999 175.91099999999994 78.463 174.47099999999992 L 76.61399999999999 174.22899999999993 C 88.52533100463776 180.29481644809968 101.48612608209321 184.02844865582549 114.79900000000002 185.22899999999993 C 127.383 186.40399999999994 140.13799999999998 184.47599999999994 152.213 180.90999999999994 C 158.20666593261234 179.26147404466346 163.98442831838923 176.91015669659126 169.426 173.90499999999994 L 167 173.90499999999994 C 172.028 176.06599999999995 177.054 178.23299999999995 182.1 180.34699999999995 C 186.58425246572037 182.06883109039157 190.86943259509678 184.26992705701048 194.88099999999997 186.91199999999992 C 202.114 191.96699999999996 207.352 198.80399999999995 211.248 206.65099999999995 C 214.39269657110785 213.23263931809723 217.08494110312782 220.02105138084 219.30599999999998 226.96899999999994 C 221.45899999999997 233.38199999999998 223.27499999999998 239.91099999999997 225.177 246.40199999999996 C 227.977 255.97599999999997 230.583 265.542 231.892 275.45599999999996 C 232.5485475164096 280.4744672718197 232.9384285965576 285.5242283852436 233.06 290.584 C 233.17600000000002 295.24199999999996 233.291 299.9839999999999 232.344 304.5679999999999 C 230.992 311.1139999999999 227.691 316.7459999999999 222.037 320.2679999999999 C 219.11916599602546 322.17453827116094 215.79877471901142 323.3780945319838 212.33700000000002 323.78399999999993 C 207.87291811726763 324.2455720899509 203.3639317714069 323.99852283806695 198.97700000000003 323.0519999999999 C 194.19070010305433 322.06075405532016 189.62726890761923 320.1985026263875 185.51400000000004 317.5579999999999 C 181.40200000000004 314.86899999999986 177.41400000000004 311.95799999999986 173.42800000000003 309.08799999999985 C 167.46800000000002 304.80599999999987 161.53600000000003 300.35199999999986 155.81900000000002 295.89799999999985 L 154.07000000000002 294.53299999999984 L 153.20900000000003 293.85899999999987 C 153.06600000000003 293.74699999999984 152.92600000000004 293.6319999999999 152.78100000000003 293.5239999999999 C 152.44900000000004 293.2739999999999 152.60100000000003 293.1369999999999 152.64700000000005 293.4459999999999 L 152.64700000000005 294.7219999999999 C 152.72700000000006 294.1859999999999 153.46100000000004 293.4219999999999 153.79800000000006 292.9319999999999 L 155.25900000000007 290.8169999999999 C 156.03300000000007 289.6959999999999 157.51400000000007 288.2429999999999 157.51400000000007 286.7999999999999 L 157.18600000000006 288.0109999999999 C 161.96500000000006 281.0789999999999 166.73900000000006 274.1389999999999 171.76300000000006 267.3809999999999 C 172.96300000000005 265.7709999999999 174.16300000000007 264.1669999999999 175.39400000000006 262.5809999999999 C 175.75400000000008 262.1169999999999 176.27000000000007 261.92599999999993 175.23300000000006 262.1219999999999 C 174.12100000000007 262.3319999999999 174.63300000000007 262.1219999999999 174.85700000000006 262.3769999999999 C 175.08445000354908 262.55865959190606 175.33371572443448 262.71117527557453 175.59900000000005 262.8309999999999 Q 176.51700000000005 263.3949999999999 177.42900000000006 263.9689999999999 C 180.52900000000005 265.9129999999999 183.60600000000005 267.89499999999987 186.67900000000006 269.88099999999986 Q 192.23900000000006 273.47199999999987 197.79300000000006 277.07199999999983 C 200.39300000000006 278.75399999999985 202.80400000000006 274.59999999999985 200.21500000000006 272.9279999999998 C 193.24000000000007 268.4209999999998 186.30500000000006 263.8489999999998 179.25900000000007 259.4529999999998 C 177.80200000000008 258.5439999999998 176.17200000000008 257.1699999999998 174.34800000000007 257.5529999999998 C 172.15700000000007 258.01599999999985 170.79600000000008 260.72999999999985 169.54000000000008 262.3899999999998 Q 165.3760000000001 267.8899999999998 161.41000000000008 273.5409999999998 Q 159.08200000000008 276.84099999999984 156.78900000000007 280.1569999999998 Q 155.67400000000006 281.7649999999998 154.56400000000008 283.3759999999998 C 153.89200000000008 284.35099999999983 152.71400000000008 285.5629999999998 152.71400000000008 286.8059999999998 L 153.0420000000001 285.5949999999998 C 152.1140000000001 287.0779999999998 151.0420000000001 288.4949999999998 150.05100000000007 289.9299999999998 C 148.87700000000007 291.62999999999977 147.21300000000008 293.4389999999998 148.31000000000006 295.6199999999998 C 149.0081964697847 296.66366059145366 149.92634304595092 297.5418729113332 151 298.193 Q 152.437 299.317 153.878 300.43399999999997 Q 160.208 305.34299999999996 166.66 310.09299999999996 C 172.281 314.212 177.908 318.51099999999997 183.82999999999998 322.186 C 190.01242308784816 325.9049122018941 196.98190853887485 328.11971993405797 204.177 328.652 C 207.54587093659 328.9333079393376 210.93575082091965 328.8326682594466 214.28199999999998 328.352 C 216.99829798705312 327.9264488089127 219.6254530403327 327.05433470055067 222.057 325.77099999999996 C 226.641813800843 323.52160090272974 230.50477973713333 320.03277210312615 233.208 315.7 C 236.0884166903184 310.710764170627 237.67683556944786 305.0810034256839 237.829 299.322 C 238.11968826720877 291.7981997506424 237.79628295277408 284.2632238103996 236.86200000000002 276.79200000000003 C 235.17 262.80100000000004 231.107 249.44400000000002 227.12 235.97800000000004 C 224.45782671360823 226.66100266002456 221.2202765872024 217.51811301070668 217.426 208.60199999999986 C 214.9352561154592 202.56710477341397 211.57133189554213 196.9309144337933 207.442 191.87400000000002 C 203.11366007288498 186.83446427782152 197.8784842025799 182.65147938520764 192.00799999999998 179.54200000000003 C 188.66400000000002 177.76700000000002 185.09300000000002 176.45500000000004 181.608 174.98400000000004 C 177.984 173.45500000000004 174.371 171.89800000000002 170.757 170.34400000000005 C 169.763 169.91700000000006 168.695 169.22000000000006 167.574 169.52900000000005 C 166.92766930607183 169.77872900491158 166.31038127358437 170.09793498368836 165.733 170.48100000000005 C 164.53300000000002 171.13000000000005 163.298 171.72600000000006 162.05 172.28600000000006 C 159.50470995297113 173.4085636047005 156.90326003616693 174.399210686183 154.256 175.25400000000002 C 141.746 179.38000000000005 128.421 181.64500000000004 115.245 180.48000000000005 C 108.07567959293681 179.8039272688945 100.99876139951552 178.36615065331097 94.13399999999999 176.19100000000003 C 90.997 175.21600000000007 87.891 174.11100000000005 84.864 172.83200000000005 Q 82.884 171.99700000000004 80.95100000000001 171.05400000000006 C 80.308 170.74200000000005 79.68100000000001 170.39200000000005 79.033 170.09100000000007 C 77.767 169.50200000000007 76.776 169.99900000000005 75.57300000000001 170.44900000000007 C 68.77900000000001 172.99400000000006 62.016000000000005 175.64900000000006 55.41400000000001 178.66300000000007 C 49.894000000000005 181.18300000000008 44.06700000000001 183.88700000000006 39.31400000000001 187.72300000000007 C 34.88292299277596 191.1994260543603 31.29372688028234 195.63122868278694 28.814000000000007 200.68800000000005 C 26.383000000000006 205.70900000000006 24.825000000000006 211.08800000000008 23.000000000000007 216.33900000000008 C 19.833000000000006 225.46300000000008 17.108000000000008 234.7530000000001 14.545000000000007 244.06200000000007 C 11.887000000000008 253.71800000000007 9.245000000000008 263.5060000000001 7.798000000000007 273.43100000000004 C 6.710261600334629 280.4777473156895 6.365037644494474 287.61919083713235 6.768000000000006 294.738 C 7.010847355472847 298.69040650110213 7.588247168602123 302.6151194835082 8.493999999999993 306.47 C 9.042461964195509 309.1021975909383 9.9046178861792 311.6591210729585 11.061999999999994 314.086 C 13.371292269441465 318.61436531298943 17.201194575035743 322.18511726845475 21.879999999999985 324.172 C 27.468 326.47200000000004 34.48 326.33500000000004 40.28 324.997 C 43.30523385381314 324.3517954755928 46.168241857427525 323.0999098466359 48.696000000000005 321.317 C 50.96434428469482 319.5568919279088 52.95349672858775 317.463898983555 54.59599999999999 315.109 C 58.098576325119126 310.1818520993231 61.0262592916115 304.870352094448 63.32200000000001 299.27799999999996 C 69.002 286.06699999999995 74.322 272.61699999999996 79.053 259.037 Q 79.725 257.10699999999997 80.374 255.16799999999998 C 80.874 253.66799999999998 81.862 251.75799999999998 81.53699999999999 250.158 C 81.12599999999999 248.129 79.437 247.57399999999998 77.707 246.958 Q 75.05799999999999 246.007 72.407 245.066 Q 62.413999999999994 241.504 52.394999999999996 238.013 C 49.31999999999999 236.948 46.241 235.888 43.142999999999994 234.892 C 42.22523869588249 234.5076118416923 41.242845595062285 234.30095298214152 40.24799999999998 234.283 C 38.47099999999999 234.40099999999998 37.63499999999999 235.73399999999998 36.91399999999999 237.15499999999997 C 34.54799999999999 241.81299999999996 32.41899999999999 246.59699999999998 30.32199999999999 251.38099999999997 C 28.12799999999999 256.381 25.97699999999999 261.419 24.03699999999999 266.529 C 23.694977905913856 267.8056830709568 24.44142936985109 269.1204352914477 25.712999999999987 269.481 C 26.987092159061724 269.8033262253826 28.288850103494877 269.0642522704809 28.664999999999985 267.805 Z" stroke-linecap="round" />
</g>
		<g transform="matrix(1 0 0 1 0 163.81)" id="SVGRepo_iconCarrier"  >
<path style="stroke: none; stroke-width: 1; stroke-dasharray: none; stroke-linecap: butt; stroke-dashoffset: 0; stroke-linejoin: miter; stroke-miterlimit: 4; fill: rgb(34,34,34); fill-rule: nonzero; opacity: 1;" vector-effect="non-scaling-stroke"  transform=" translate(-124.76, -330.08)" d="M 2.318 332.551 Q 8.846 332.551 15.373999999999999 332.551 L 35.893 332.53999999999996 L 62.016000000000005 332.52399999999994 L 91.878 332.50499999999994 L 123.618 332.4839999999999 L 155.373 332.46199999999993 L 185.281 332.44199999999995 L 211.58100000000002 332.42499999999995 L 232.181 332.41299999999995 Q 238.758 332.41299999999995 245.33800000000002 332.41299999999995 L 247.20300000000003 332.41299999999995 C 250.29200000000003 332.41299999999995 250.29700000000003 327.61299999999994 247.20300000000003 327.61299999999994 Q 241.67100000000002 327.61299999999994 236.13900000000004 327.61299999999994 L 217.17900000000003 327.62399999999997 L 192.18700000000004 327.64 L 163.02400000000003 327.659 L 131.55300000000003 327.68 L 99.64 327.7 L 69.14 327.71999999999997 L 41.807 327.73699999999997 L 19.752000000000002 327.74899999999997 L 4.709000000000003 327.74899999999997 L 2.318 327.74899999999997 C -0.77 327.74899999999997 -0.7749999999999999 332.549 2.318 332.549 Z" stroke-linecap="round" />
</g>
		<g transform="matrix(1 0 0 1 -0.01 -57.24)" id="SVGRepo_iconCarrier"  >
<path style="stroke: none; stroke-width: 1; stroke-dasharray: none; stroke-linecap: butt; stroke-dashoffset: 0; stroke-linejoin: miter; stroke-miterlimit: 4; fill: rgb(34,34,34); fill-rule: nonzero; opacity: 1;" vector-effect="non-scaling-stroke"  transform=" translate(-124.76, -109.03)" d="M 122.184 105.028 C 121.773 106.59700000000001 121.40299999999999 108.182 121.133 109.781 C 120.9566088513628 110.54746966857823 120.94842093333403 111.34306237037234 121.109 112.113 C 121.35103768844324 113.04783634693429 121.99637422186728 113.82656441821543 122.86999999999999 114.238 C 123.58847667778196 114.61461550781341 124.38882868441313 114.808005284523 125.19999999999999 114.801 C 125.72899999999998 114.778 126.23499999999999 114.645 126.75599999999999 114.575 C 127.3594429118366 114.40942596271765 127.87435735762912 114.01471802517634 128.19099999999997 113.47500000000001 C 128.51247792893685 112.92537848055032 128.6023698733234 112.27053409392161 128.44088820736627 111.65461563747188 C 128.27940654140914 111.03869718102213 127.87978824005461 110.51219272179388 127.32999999999997 110.191 L 126.75599999999997 109.95 C 126.3384588098181 109.83486081083446 125.89754119018184 109.83486081083446 125.47999999999998 109.95 C 125.24599999999998 109.98100000000001 125.01499999999997 110.038 124.77999999999997 110.071 L 125.41799999999998 109.985 C 125.21139046917789 110.00950048059359 125.00260953082207 110.00950048059359 124.79599999999998 109.985 L 125.43399999999998 110.071 C 125.20606162305263 110.03347982225168 124.98346315504543 109.96868117319377 124.77099999999999 109.878 L 125.34399999999998 110.12 C 125.2084280186981 110.0592934116879 125.07712704443155 109.9894666849151 124.95099999999998 109.911 L 125.43699999999998 110.287 C 125.37720891988255 110.23986729928596 125.3228717818959 110.18620099016334 125.27499999999998 110.12700000000001 L 125.64999999999998 110.61300000000001 C 125.60780454221877 110.54969946386173 125.57132727392067 110.48276869634228 125.54099999999998 110.41300000000001 L 125.78299999999999 110.98700000000001 C 125.74816095040548 110.88698187150966 125.723044786887 110.7838381599938 125.70799999999998 110.679 L 125.79399999999998 111.31700000000001 C 125.773482706459 111.08840567381571 125.77952298872938 110.8582038050668 125.81199999999998 110.631 L 125.72599999999998 111.269 C 125.99633207793305 109.59560102382181 126.35888424735894 107.9384104446043 126.81199999999998 106.30500000000002 C 127.16435767039202 105.02673694651664 126.41376305348335 103.70485767039206 125.13549999999998 103.3525 C 123.85723694651661 103.00014232960797 122.53535767039202 103.75073694651664 122.18299999999998 105.02900000000001 Z" stroke-linecap="round" />
</g>
		<g transform="matrix(1 0 0 1 -22.12 -70.73)" id="SVGRepo_iconCarrier"  >
<path style="stroke: none; stroke-width: 1; stroke-dasharray: none; stroke-linecap: butt; stroke-dashoffset: 0; stroke-linejoin: miter; stroke-miterlimit: 4; fill: rgb(34,34,34); fill-rule: nonzero; opacity: 1;" vector-effect="non-scaling-stroke"  transform=" translate(-102.64, -95.55)" d="M 97.428 92.9 C 96.612 95.55300000000001 97.14399999999999 101.655 102.17 102.17500000000001 C 108.812 102.135 109.17 94.757 106.93 91.28800000000001 C 105.1 88.451 99.716 87.269 97.428 92.9 Z" stroke-linecap="round" />
</g>
		<g transform="matrix(1 0 0 1 20.15 -70.73)" id="SVGRepo_iconCarrier"  >
<path style="stroke: none; stroke-width: 1; stroke-dasharray: none; stroke-linecap: butt; stroke-dashoffset: 0; stroke-linejoin: miter; stroke-miterlimit: 4; fill: rgb(34,34,34); fill-rule: nonzero; opacity: 1;" vector-effect="non-scaling-stroke"  transform=" translate(-144.92, -95.55)" d="M 150.13 92.9 C 150.947 95.55300000000001 150.415 101.656 145.389 102.17500000000001 C 138.747 102.135 138.389 94.757 140.62900000000002 91.28800000000001 C 142.46 88.451 147.843 87.27 150.13 92.9 Z" stroke-linecap="round" />
</g>
		<g transform="matrix(1 0 0 1 -0.38 -38.53)" id="SVGRepo_iconCarrier"  >
<path style="stroke: none; stroke-width: 1; stroke-dasharray: none; stroke-linecap: butt; stroke-dashoffset: 0; stroke-linejoin: miter; stroke-miterlimit: 4; fill: rgb(34,34,34); fill-rule: nonzero; opacity: 1;" vector-effect="non-scaling-stroke"  transform=" translate(-124.38, -127.74)" d="M 113.045 127.96 C 115.934 130.78799999999998 120.505 131.612 124.382 131.60899999999998 C 128.25900000000001 131.60599999999997 132.83100000000002 130.789 135.721 127.95999999999998 C 137.93200000000002 125.79599999999998 134.537 122.40299999999998 132.327 124.56599999999997 C 132.227 124.65999999999997 131.74099999999999 125.07999999999997 132.052 124.82799999999997 C 132.363 124.57599999999998 132.042 124.83399999999997 131.962 124.88499999999998 C 131.832 124.96999999999997 131.70499999999998 125.05699999999997 131.57299999999998 125.13799999999998 C 131.32399999999998 125.29199999999997 131.06599999999997 125.43799999999997 130.80399999999997 125.56499999999998 C 130.628 125.65399999999998 130.44899999999998 125.73699999999998 130.26899999999998 125.81699999999998 C 130.59499999999997 125.67299999999997 130.32599999999996 125.79199999999997 130.14499999999998 125.85599999999998 C 128.29670809969474 126.51675011154845 126.34461045318909 126.83955924865063 124.38199999999998 126.80899999999998 C 122.45514118609044 126.85080531922598 120.53679624460216 126.54107783706377 118.72099999999998 125.89499999999998 C 118.67399999999998 125.87899999999998 118.00599999999997 125.60099999999998 118.49299999999998 125.81699999999998 Q 118.26699999999998 125.71699999999998 118.04399999999998 125.60699999999999 C 117.75299999999999 125.46399999999998 117.46699999999998 125.30699999999999 117.19099999999999 125.13799999999999 C 116.97999999999999 125.00899999999999 116.78599999999999 124.844 116.573 124.72099999999999 C 117.192 125.07799999999999 116.61999999999999 124.743 116.439 124.56599999999999 C 114.22999999999999 122.40299999999999 110.833 125.79499999999999 113.04499999999999 127.96 Z" stroke-linecap="round" />
</g>
		<g transform="matrix(1 0 0 1 10.57 -40.74)" id="SVGRepo_iconCarrier"  >
<path style="stroke: none; stroke-width: 1; stroke-dasharray: none; stroke-linecap: butt; stroke-dashoffset: 0; stroke-linejoin: miter; stroke-miterlimit: 4; fill: rgb(34,34,34); fill-rule: nonzero; opacity: 1;" vector-effect="non-scaling-stroke"  transform=" translate(-135.33, -125.54)" d="M 129.956 122.565 C 131.16266005537034 126.27474387013669 133.7494555021062 129.3785403722479 137.18099999999998 131.234 C 137.74514502711392 131.54378305880329 138.4051329499991 131.63016330614684 139.02999999999997 131.476 C 139.96078904330207 131.21976668930284 140.64744022548763 130.43076207396072 140.77271658364947 129.47351101664725 C 140.89799294181134 128.51625995933378 140.43750462642376 127.57712810468318 139.60399999999998 127.09 C 138.97068783508874 126.78067884180686 138.3708658145132 126.40704668932545 137.814 125.97500000000001 L 138.29999999999998 126.35000000000001 C 137.474208551878 125.69392291843836 136.73140530361425 124.93970226039117 136.088 124.10400000000001 L 136.463 124.58900000000001 C 135.72915267055512 123.63182638144609 135.11650255666572 122.58756694938351 134.63899999999998 121.48000000000002 L 134.88099999999997 122.05400000000002 C 134.77499999999998 121.80100000000002 134.67599999999996 121.54700000000001 134.58099999999996 121.28900000000002 C 134.40061928389852 120.69329038482773 134.00962529148345 120.18357639835205 133.48099999999997 119.85500000000002 C 132.63813151343567 119.36152527065552 131.58028646191323 119.42805427847247 130.8058850496516 120.02324084319991 C 130.03148363739 120.61842740792736 129.69501041814715 121.62353836431174 129.95499999999996 122.56500000000001 Z" stroke-linecap="round" />
</g>
</g>
</g>
</svg>